<svg xmlns="http://www.w3.org/2000/svg" xmlns:xlink="http://www.w3.org/1999/xlink" width="1024" height="909" viewBox="0 0 1024 909">
  <defs>
    <clipPath id="clip-path">
      <rect id="Rectangle_2714" data-name="Rectangle 2714" width="1024" height="909" fill="#fff" stroke="#707070" stroke-width="1"/>
    </clipPath>
    <linearGradient id="linear-gradient" x1="1.532" y1="1.52" x2="-0.81" y2="-0.529" gradientUnits="objectBoundingBox">
      <stop offset="0" stop-color="#565ba5"/>
      <stop offset="0.299" stop-color="#6b86ad"/>
      <stop offset="0.603" stop-color="#7eacb4"/>
      <stop offset="0.847" stop-color="#89c4b9"/>
      <stop offset="1" stop-color="#8ecdbb"/>
    </linearGradient>
    <linearGradient id="linear-gradient-2" x1="6.973" y1="3.809" x2="7.958" y2="3.809" xlink:href="#linear-gradient"/>
    <linearGradient id="linear-gradient-3" x1="0" y1="0.5" x2="1" y2="0.5" xlink:href="#linear-gradient"/>
  </defs>
  <g id="contact-image" clip-path="url(#clip-path)">
    <g id="Group_2811" data-name="Group 2811" transform="translate(-94.548 142.049)">
      <g id="Group_2789" data-name="Group 2789" transform="translate(0 14.655)">
        <path id="Path_6582" data-name="Path 6582" d="M76.53,578.485c9.029-52.376,64.524-23.331,126.058-43.669,66.139-21.859,188.524,40.475,234.484-1.839,61.282-56.425,49.734-183.752,123.567-241.8a118.64,118.64,0,0,1,48.188-22.539c53.6-11.542,168.751,2.228,189.426-66.807,5.6-18.688,1.653-38.285-8.535-54.709-9.78-15.763-24.186-27.083-40.73-35.15-69.23-33.746-120.532,18.778-178.087,50.1-30.213,16.44-63.694,26.154-97.478,32.009-39.439,6.83-81.184,8.968-120.966,3.988-98.12-12.285-169.176-58.741-236.567,38.628C99.954,259.715,84.435,282.262,74.154,308.5a318.774,318.774,0,0,0-19.981,83.634c-4.2,40.549-.63,78.637,7.211,118.441" transform="translate(54.755 6.232)" fill="#8ecdbb" opacity="0.54" style="mix-blend-mode: overlay;isolation: isolate"/>
        <path id="Path_6583" data-name="Path 6583" d="M730.347,62.763c-25.307-2.3-13.568,35-82.116,67.087-64.944,30.4-120.091-13.524-160.843-19.7-35.632-5.4-84.322,24.94-154.827-15.941C278.3,62.752,168.009,202.761,105.291,198.655c-20.976-1.373-47.04,4.624-63.4,22.2-18.575,19.962-20.809,57.069-26.573,82.19-17.262,75.206,82.255,10.766,65.4,86.076-1.847,8.256-20.384,83.313-6.307,86.512C78.923,476.66,90.7,456.35,92.508,454c18.759-24.485,40.7-43.427,69.3-55.485,21.67-9.135,46.725-15.634,70.3-11.293,38.538,7.094,52.626,34.492,94.855,12.882,78.98-40.412,98.386-153.07,174.225-182.752,45.017-17.619,92.841-6.3,137.159,7.579,15.1,4.728,31.534,13.724,47.854,11.633,30.238-3.873,56.693-33.834,73.868-56.562,9.64-12.754,25.066-29.758,24.485-46.84C784.554,133.161,791.993,52.887,730.347,62.763Z" transform="translate(-13.3 -61.921)" fill="#8ecdbb" opacity="0.54" style="mix-blend-mode: overlay;isolation: isolate"/>
      </g>
      <path id="Path_6584" data-name="Path 6584" d="M320.572,476.217c28.572-3.555,68.57-27,97.3-22.744,46.418,6.877,71.7-11.526,118.31-6.285,40.752,4.583,83.84,22.27,119.376,40.914,109.933,57.675,138.417,37.479,209.317,41.607,23.715,1.379,63.472-33.867,79.1-46.407,17.748-14.245,14.557-41.3,17.164-59.544,7.8-54.608,11.805-109.788,19.129-164.481.8-6,10.051-60.476-6.211-63.066-5.205-.828-15.289,13.792-16.947,15.478-17.262,17.542-38.938,30.981-69.129,39.272-22.879,6.282-49.956,10.577-77.037,6.984-44.269-5.874-64.258-26.135-108.256-11.115C620.4,274.923,615.946,356.844,535.53,377.157c-47.733,12.057-103.056,2.927-154.841-8-17.643-3.722-37.438-10.588-55.4-9.355-33.283,2.286-58.33,23.69-74.085,39.977-8.842,9.138-23.52,21.281-20.247,33.766C230.955,433.543,250.563,484.93,320.572,476.217Z" transform="translate(364.809 186.466)" fill="#8ecdbb" opacity="0.54" style="mix-blend-mode: overlay;isolation: isolate"/>
      <path id="Path_6585" data-name="Path 6585" d="M830.581,149.9C815.788,187.14,800.856,256.184,752.3,261.636c-52.187,5.86-132.8-59.125-173.274-35.043-53.969,32.115-65.215,127.84-128.695,159.2a89.435,89.435,0,0,1-39.047,9.146c-41.339.195-124.148-27.84-150.118,19.88-7.028,12.918-7.162,27.988-2.2,41.687,4.766,13.146,13.639,23.734,24.592,32.253,45.837,35.643,91.835,4.857,139.157-9.311,24.841-7.439,51.05-9.407,76.88-8.483,30.156,1.083,61.285,5.986,89.862,15.837,70.478,24.3,115.686,69.6,180.518,8.226,15.33-14.51,30.279-28.736,41.939-46.5a240.157,240.157,0,0,0,27.722-58.6c9.4-29.259,12.674-57.913,13.069-88.5" transform="translate(408.408 105.904)" fill="#8ecdbb" opacity="0.54" style="mix-blend-mode: overlay;isolation: isolate"/>
      <g id="Group_2802" data-name="Group 2802" transform="translate(158.749)" opacity="0.56">
        <g id="stars" transform="translate(0 0.45)">
          <g id="Group_2790" data-name="Group 2790" transform="translate(0 0.899)">
            <path id="Path_6586" data-name="Path 6586" d="M82.08,73.494a1.121,1.121,0,1,1-1.121,1.121A1.121,1.121,0,0,1,82.08,73.494Z" transform="translate(-54.259 -28.466)" fill="#fff"/>
            <path id="Path_6587" data-name="Path 6587" d="M115.273,149.1a1.734,1.734,0,1,1-1.735,1.735A1.735,1.735,0,0,1,115.273,149.1Z" transform="translate(2.458 103.152)" fill="#fff"/>
            <path id="Path_6588" data-name="Path 6588" d="M136.645,140.593a.269.269,0,0,1,.269-.184.263.263,0,0,1,.247.211,6.361,6.361,0,0,0,2.809,4.081.266.266,0,0,1,0,.444,6.519,6.519,0,0,0-2.735,3.785.263.263,0,0,1-.51,0,6.54,6.54,0,0,0-2.793-3.8.264.264,0,0,1-.118-.214.275.275,0,0,1,.107-.219A8.127,8.127,0,0,0,136.645,140.593Z" transform="translate(37.761 88.028)" fill="#fff"/>
            <path id="Path_6589" data-name="Path 6589" d="M139.79,110.5a1.486,1.486,0,1,1-1.486,1.486A1.487,1.487,0,0,1,139.79,110.5Z" transform="translate(45.574 35.962)" fill="#fff"/>
            <path id="Path_6590" data-name="Path 6590" d="M126.265,67.626a.351.351,0,0,1,.68.033,8.445,8.445,0,0,0,3.728,5.413.353.353,0,0,1,.159.293.359.359,0,0,1-.156.3,8.67,8.67,0,0,0-3.629,5.021.347.347,0,0,1-.337.26.351.351,0,0,1-.337-.263,8.652,8.652,0,0,0-3.706-5.038.358.358,0,0,1-.154-.285.347.347,0,0,1,.143-.291A10.81,10.81,0,0,0,126.265,67.626Z" transform="translate(18.083 -39.112)" fill="#fff"/>
            <circle id="Ellipse_112" data-name="Ellipse 112" cx="1.121" cy="1.121" r="1.121" transform="translate(154.447 206.653)" fill="#fff"/>
            <path id="Path_6591" data-name="Path 6591" d="M112.742,101.488a1.734,1.734,0,1,1-1.735,1.735A1.735,1.735,0,0,1,112.742,101.488Z" transform="translate(-1.948 20.27)" fill="#fff"/>
            <path id="Path_6592" data-name="Path 6592" d="M174.1,86.022a.271.271,0,0,1,.269-.186.266.266,0,0,1,.247.211,6.37,6.37,0,0,0,2.812,4.084.265.265,0,0,1,0,.441,6.533,6.533,0,0,0-2.735,3.788.263.263,0,0,1-.51,0,6.52,6.52,0,0,0-2.793-3.8.272.272,0,0,1-.118-.214.277.277,0,0,1,.107-.222A8.1,8.1,0,0,0,174.1,86.022Z" transform="translate(102.969 -6.981)" fill="#fff"/>
            <path id="Path_6593" data-name="Path 6593" d="M199.8,119.07a1.487,1.487,0,1,1-1.486,1.488A1.488,1.488,0,0,1,199.8,119.07Z" transform="translate(150.056 50.879)" fill="#fff"/>
            <path id="Path_6594" data-name="Path 6594" d="M194.719,126.034a2.3,2.3,0,1,1-2.3,2.3A2.3,2.3,0,0,1,194.719,126.034Z" transform="translate(139.785 63.003)" fill="#fff"/>
            <path id="Path_6595" data-name="Path 6595" d="M183.452,145.947a.353.353,0,0,1,.682.033,8.448,8.448,0,0,0,3.728,5.413.355.355,0,0,1,0,.587A8.668,8.668,0,0,0,184.236,157a.348.348,0,0,1-.674,0,8.67,8.67,0,0,0-3.706-5.041.346.346,0,0,1-.154-.282.357.357,0,0,1,.14-.293A10.767,10.767,0,0,0,183.452,145.947Z" transform="translate(117.645 97.239)" fill="#fff"/>
            <path id="Path_6596" data-name="Path 6596" d="M101.691,66.97a1.121,1.121,0,1,1-1.118,1.121A1.121,1.121,0,0,1,101.691,66.97Z" transform="translate(-20.113 -39.824)" fill="#fff"/>
            <path id="Path_6597" data-name="Path 6597" d="M170.7,96.709a1.734,1.734,0,1,1-1.732,1.735A1.737,1.737,0,0,1,170.7,96.709Z" transform="translate(98.949 11.95)" fill="#fff"/>
            <path id="Path_6598" data-name="Path 6598" d="M136.645,60.4a.271.271,0,0,1,.269-.186.265.265,0,0,1,.247.211,6.366,6.366,0,0,0,2.809,4.084.273.273,0,0,1,.121.219.265.265,0,0,1-.118.222,6.533,6.533,0,0,0-2.735,3.788.266.266,0,0,1-.255.2.263.263,0,0,1-.255-.2,6.543,6.543,0,0,0-2.793-3.8.265.265,0,0,1-.011-.433A8.127,8.127,0,0,0,136.645,60.4Z" transform="translate(37.761 -51.589)" fill="#fff"/>
            <path id="Path_6599" data-name="Path 6599" d="M165.893,57.066a1.487,1.487,0,1,1-1.486,1.488A1.487,1.487,0,0,1,165.893,57.066Z" transform="translate(91.018 -57.066)" fill="#fff"/>
            <circle id="Ellipse_113" data-name="Ellipse 113" cx="2.299" cy="2.299" r="2.299" transform="translate(339.616 80.915)" fill="#fff"/>
            <path id="Path_6600" data-name="Path 6600" d="M74.968,98.781a.353.353,0,0,1,.682.033,8.445,8.445,0,0,0,3.728,5.413.354.354,0,0,1,0,.589,8.67,8.67,0,0,0-3.629,5.021.348.348,0,0,1-.674,0,8.652,8.652,0,0,0-3.706-5.038.358.358,0,0,1-.153-.285.352.352,0,0,1,.14-.29A10.775,10.775,0,0,0,74.968,98.781Z" transform="translate(-71.218 15.127)" fill="#fff"/>
            <path id="Path_6601" data-name="Path 6601" d="M110.027,121.481a1.121,1.121,0,1,1-1.121,1.121A1.122,1.122,0,0,1,110.027,121.481Z" transform="translate(-5.606 55.076)" fill="#fff"/>
            <path id="Path_6602" data-name="Path 6602" d="M73.679,132.737a1.486,1.486,0,1,1-1.486,1.486A1.486,1.486,0,0,1,73.679,132.737Z" transform="translate(-69.52 74.672)" fill="#fff"/>
            <path id="Path_6603" data-name="Path 6603" d="M83.509,102.121a1.732,1.732,0,1,1-1.732,1.732A1.733,1.733,0,0,1,83.509,102.121Z" transform="translate(-52.835 21.372)" fill="#fff"/>
            <path id="Path_6604" data-name="Path 6604" d="M204.977,87.613a.265.265,0,0,1,.513.025,6.375,6.375,0,0,0,2.812,4.081.27.27,0,0,1,0,.444,6.53,6.53,0,0,0-2.738,3.788.262.262,0,0,1-.507,0,6.536,6.536,0,0,0-2.8-3.8.269.269,0,0,1-.008-.436A8.131,8.131,0,0,0,204.977,87.613Z" transform="translate(156.722 -4.211)" fill="#fff"/>
          </g>
          <g id="Group_2791" data-name="Group 2791" transform="translate(172.868)">
            <path id="Path_6605" data-name="Path 6605" d="M157.027,73.166a1.12,1.12,0,1,1-1.121,1.118A1.12,1.12,0,0,1,157.027,73.166Z" transform="translate(-96.65 -28.138)" fill="#fff"/>
            <path id="Path_6606" data-name="Path 6606" d="M190.217,148.768a1.734,1.734,0,1,1-1.732,1.735A1.735,1.735,0,0,1,190.217,148.768Z" transform="translate(-39.932 103.48)" fill="#fff"/>
            <path id="Path_6607" data-name="Path 6607" d="M211.592,140.267a.266.266,0,0,1,.266-.186.274.274,0,0,1,.249.211,6.366,6.366,0,0,0,2.809,4.084.273.273,0,0,1,.121.219.265.265,0,0,1-.118.222,6.55,6.55,0,0,0-2.738,3.788.261.261,0,0,1-.252.2.264.264,0,0,1-.255-.2,6.534,6.534,0,0,0-2.8-3.8.277.277,0,0,1-.115-.214.264.264,0,0,1,.107-.219A8.127,8.127,0,0,0,211.592,140.267Z" transform="translate(-4.629 88.355)" fill="#fff"/>
            <path id="Path_6608" data-name="Path 6608" d="M214.738,110.173a1.487,1.487,0,1,1-1.488,1.488A1.487,1.487,0,0,1,214.738,110.173Z" transform="translate(3.182 36.289)" fill="#fff"/>
            <path id="Path_6609" data-name="Path 6609" d="M201.212,67.3a.351.351,0,0,1,.68.033,8.451,8.451,0,0,0,3.728,5.413.352.352,0,0,1,0,.587,8.668,8.668,0,0,0-3.629,5.024.348.348,0,0,1-.674,0,8.658,8.658,0,0,0-3.706-5.041.353.353,0,0,1-.153-.282.357.357,0,0,1,.14-.293A10.788,10.788,0,0,0,201.212,67.3Z" transform="translate(-24.307 -38.784)" fill="#fff"/>
            <circle id="Ellipse_114" data-name="Ellipse 114" cx="1.121" cy="1.121" r="1.121" transform="translate(187.003 206.652)" fill="#fff"/>
            <path id="Path_6610" data-name="Path 6610" d="M187.689,101.16a1.734,1.734,0,1,1-1.735,1.732A1.732,1.732,0,0,1,187.689,101.16Z" transform="translate(-44.338 20.598)" fill="#fff"/>
            <path id="Path_6611" data-name="Path 6611" d="M249.048,85.694a.268.268,0,0,1,.269-.186.265.265,0,0,1,.247.211,6.36,6.36,0,0,0,2.81,4.081.267.267,0,0,1,.121.222.272.272,0,0,1-.118.222,6.525,6.525,0,0,0-2.735,3.788.264.264,0,0,1-.51,0,6.543,6.543,0,0,0-2.793-3.8.268.268,0,0,1-.011-.436A8.114,8.114,0,0,0,249.048,85.694Z" transform="translate(60.579 -6.653)" fill="#fff"/>
            <path id="Path_6612" data-name="Path 6612" d="M274.752,118.742a1.487,1.487,0,1,1-1.486,1.486A1.487,1.487,0,0,1,274.752,118.742Z" transform="translate(107.666 51.207)" fill="#fff"/>
            <path id="Path_6613" data-name="Path 6613" d="M269.663,125.705a2.3,2.3,0,1,1-2.3,2.3A2.3,2.3,0,0,1,269.663,125.705Z" transform="translate(97.394 63.329)" fill="#fff"/>
            <path id="Path_6614" data-name="Path 6614" d="M258.4,145.618a.357.357,0,0,1,.354-.247.353.353,0,0,1,.329.28,8.446,8.446,0,0,0,3.728,5.416.355.355,0,0,1,0,.587,8.659,8.659,0,0,0-3.629,5.021.349.349,0,0,1-.34.26.343.343,0,0,1-.334-.26,8.681,8.681,0,0,0-3.706-5.041.35.35,0,0,1-.156-.285.366.366,0,0,1,.143-.291A10.763,10.763,0,0,0,258.4,145.618Z" transform="translate(75.253 97.566)" fill="#fff"/>
            <path id="Path_6615" data-name="Path 6615" d="M176.64,66.642a1.121,1.121,0,1,1-1.121,1.121A1.121,1.121,0,0,1,176.64,66.642Z" transform="translate(-62.505 -39.496)" fill="#fff"/>
            <path id="Path_6616" data-name="Path 6616" d="M245.642,96.381a1.734,1.734,0,1,1-1.732,1.732A1.732,1.732,0,0,1,245.642,96.381Z" transform="translate(56.559 12.278)" fill="#fff"/>
            <path id="Path_6617" data-name="Path 6617" d="M211.592,60.071a.266.266,0,0,1,.266-.186.271.271,0,0,1,.249.211,6.36,6.36,0,0,0,2.809,4.081.278.278,0,0,1,.121.222.268.268,0,0,1-.118.222,6.542,6.542,0,0,0-2.738,3.788.258.258,0,0,1-.252.195.264.264,0,0,1-.255-.2,6.536,6.536,0,0,0-2.8-3.8.278.278,0,0,1-.115-.217.267.267,0,0,1,.107-.219A8.13,8.13,0,0,0,211.592,60.071Z" transform="translate(-4.629 -51.261)" fill="#fff"/>
            <path id="Path_6618" data-name="Path 6618" d="M240.84,56.738a1.486,1.486,0,1,1-1.486,1.486A1.487,1.487,0,0,1,240.84,56.738Z" transform="translate(48.628 -56.738)" fill="#fff"/>
            <circle id="Ellipse_115" data-name="Ellipse 115" cx="2.299" cy="2.299" r="2.299" transform="translate(372.172 80.914)" fill="#fff"/>
            <path id="Path_6619" data-name="Path 6619" d="M149.915,98.453a.353.353,0,0,1,.682.033,8.441,8.441,0,0,0,3.728,5.413.352.352,0,0,1,0,.587,8.667,8.667,0,0,0-3.629,5.024.348.348,0,0,1-.674,0,8.658,8.658,0,0,0-3.706-5.041.353.353,0,0,1-.154-.282.357.357,0,0,1,.14-.293A10.767,10.767,0,0,0,149.915,98.453Z" transform="translate(-113.608 15.455)" fill="#fff"/>
            <path id="Path_6620" data-name="Path 6620" d="M184.974,121.153a1.121,1.121,0,1,1-1.121,1.121A1.121,1.121,0,0,1,184.974,121.153Z" transform="translate(-47.996 55.404)" fill="#fff"/>
            <path id="Path_6621" data-name="Path 6621" d="M148.626,132.408a1.487,1.487,0,1,1-1.486,1.488A1.487,1.487,0,0,1,148.626,132.408Z" transform="translate(-111.911 74.998)" fill="#fff"/>
            <path id="Path_6622" data-name="Path 6622" d="M158.456,101.792a1.734,1.734,0,1,1-1.732,1.735A1.737,1.737,0,0,1,158.456,101.792Z" transform="translate(-95.226 21.698)" fill="#fff"/>
            <path id="Path_6623" data-name="Path 6623" d="M154.079,143.509a.353.353,0,0,1,.682.033,8.445,8.445,0,0,0,3.728,5.413.36.36,0,0,1,.159.293.351.351,0,0,1-.156.293,8.667,8.667,0,0,0-3.629,5.024.348.348,0,0,1-.674,0,8.652,8.652,0,0,0-3.706-5.038.358.358,0,0,1-.014-.578A10.755,10.755,0,0,0,154.079,143.509Z" transform="translate(-106.359 93.894)" fill="#fff"/>
            <path id="Path_6624" data-name="Path 6624" d="M279.924,87.282a.266.266,0,0,1,.513.025,6.374,6.374,0,0,0,2.812,4.084.265.265,0,0,1,.118.222.268.268,0,0,1-.115.219,6.538,6.538,0,0,0-2.738,3.788.262.262,0,0,1-.507,0,6.534,6.534,0,0,0-2.8-3.8.267.267,0,0,1-.008-.433A8.145,8.145,0,0,0,279.924,87.282Z" transform="translate(114.332 -3.884)" fill="#fff"/>
            <path id="Path_6625" data-name="Path 6625" d="M137.116,130.729a.271.271,0,0,1,.269-.186.265.265,0,0,1,.247.211,6.358,6.358,0,0,0,2.812,4.081.275.275,0,0,1,.118.222.268.268,0,0,1-.118.222,6.533,6.533,0,0,0-2.735,3.788.264.264,0,0,1-.51,0,6.52,6.52,0,0,0-2.793-3.8.272.272,0,0,1-.118-.214.277.277,0,0,1,.107-.222A8.1,8.1,0,0,0,137.116,130.729Z" transform="translate(-134.287 71.75)" fill="#fff"/>
          </g>
        </g>
        <g id="stars-2" data-name="stars" transform="translate(393.255)">
          <g id="Group_2792" data-name="Group 2792" transform="translate(0 0.899)">
            <path id="Path_6626" data-name="Path 6626" d="M225.553,73.33a1.121,1.121,0,1,1-1.118,1.121A1.121,1.121,0,0,1,225.553,73.33Z" transform="translate(-197.733 -28.302)" fill="#fff"/>
            <path id="Path_6627" data-name="Path 6627" d="M258.748,148.932a1.734,1.734,0,1,1-1.735,1.735A1.735,1.735,0,0,1,258.748,148.932Z" transform="translate(-141.017 103.316)" fill="#fff"/>
            <path id="Path_6628" data-name="Path 6628" d="M280.122,140.431a.265.265,0,0,1,.512.025,6.364,6.364,0,0,0,2.812,4.084.27.27,0,0,1,.118.219.265.265,0,0,1-.118.222,6.545,6.545,0,0,0-2.735,3.788.261.261,0,0,1-.255.2.264.264,0,0,1-.255-.2,6.518,6.518,0,0,0-2.793-3.8.268.268,0,0,1-.118-.214.275.275,0,0,1,.107-.219A8.131,8.131,0,0,0,280.122,140.431Z" transform="translate(-105.714 88.191)" fill="#fff"/>
            <path id="Path_6629" data-name="Path 6629" d="M283.265,110.338a1.486,1.486,0,1,1-1.486,1.486A1.487,1.487,0,0,1,283.265,110.338Z" transform="translate(-97.901 36.126)" fill="#fff"/>
            <path id="Path_6630" data-name="Path 6630" d="M269.74,67.462a.354.354,0,0,1,.354-.247.359.359,0,0,1,.329.28,8.435,8.435,0,0,0,3.728,5.413.355.355,0,0,1,0,.587,8.644,8.644,0,0,0-3.629,5.024.352.352,0,0,1-.34.26.346.346,0,0,1-.334-.263,8.676,8.676,0,0,0-3.706-5.038.358.358,0,0,1-.156-.285.371.371,0,0,1,.143-.293A10.755,10.755,0,0,0,269.74,67.462Z" transform="translate(-125.392 -38.948)" fill="#fff"/>
            <circle id="Ellipse_116" data-name="Ellipse 116" cx="1.121" cy="1.121" r="1.121" transform="translate(154.448 206.652)" fill="#fff"/>
            <path id="Path_6631" data-name="Path 6631" d="M256.215,101.324a1.734,1.734,0,1,1-1.732,1.732A1.732,1.732,0,0,1,256.215,101.324Z" transform="translate(-145.421 20.434)" fill="#fff"/>
            <path id="Path_6632" data-name="Path 6632" d="M317.577,85.858a.265.265,0,0,1,.513.025,6.375,6.375,0,0,0,2.812,4.081.268.268,0,0,1,0,.444,6.537,6.537,0,0,0-2.735,3.788.262.262,0,0,1-.255.195.256.256,0,0,1-.252-.2,6.536,6.536,0,0,0-2.8-3.8.269.269,0,0,1-.008-.436A8.137,8.137,0,0,0,317.577,85.858Z" transform="translate(-40.504 -6.817)" fill="#fff"/>
            <path id="Path_6633" data-name="Path 6633" d="M343.282,118.906a1.487,1.487,0,1,1-1.488,1.486A1.487,1.487,0,0,1,343.282,118.906Z" transform="translate(6.581 51.043)" fill="#fff"/>
            <path id="Path_6634" data-name="Path 6634" d="M338.194,125.87a2.3,2.3,0,1,1-2.3,2.3A2.3,2.3,0,0,1,338.194,125.87Z" transform="translate(-3.69 63.167)" fill="#fff"/>
            <path id="Path_6635" data-name="Path 6635" d="M326.927,145.78a.355.355,0,0,1,.354-.244.348.348,0,0,1,.329.277,8.456,8.456,0,0,0,3.728,5.416.36.36,0,0,1,.159.293.351.351,0,0,1-.156.293,8.667,8.667,0,0,0-3.629,5.024.346.346,0,0,1-.337.26.352.352,0,0,1-.337-.263,8.657,8.657,0,0,0-3.706-5.041.356.356,0,0,1-.014-.576A10.763,10.763,0,0,0,326.927,145.78Z" transform="translate(-25.83 97.403)" fill="#fff"/>
            <path id="Path_6636" data-name="Path 6636" d="M245.169,66.806a1.121,1.121,0,1,1-1.121,1.121A1.122,1.122,0,0,1,245.169,66.806Z" transform="translate(-163.588 -39.66)" fill="#fff"/>
            <path id="Path_6637" data-name="Path 6637" d="M314.17,96.545a1.734,1.734,0,1,1-1.732,1.735A1.737,1.737,0,0,1,314.17,96.545Z" transform="translate(-44.526 12.114)" fill="#fff"/>
            <path id="Path_6638" data-name="Path 6638" d="M280.122,60.235a.265.265,0,0,1,.512.025,6.371,6.371,0,0,0,2.812,4.084.266.266,0,0,1,0,.441,6.545,6.545,0,0,0-2.735,3.788.264.264,0,0,1-.51,0,6.521,6.521,0,0,0-2.793-3.8.272.272,0,0,1-.118-.214.277.277,0,0,1,.107-.222A8.123,8.123,0,0,0,280.122,60.235Z" transform="translate(-105.714 -51.425)" fill="#fff"/>
            <path id="Path_6639" data-name="Path 6639" d="M309.368,56.9a1.487,1.487,0,1,1-1.486,1.486A1.487,1.487,0,0,1,309.368,56.9Z" transform="translate(-52.457 -56.902)" fill="#fff"/>
            <circle id="Ellipse_117" data-name="Ellipse 117" cx="2.299" cy="2.299" r="2.299" transform="translate(339.617 80.915)" fill="#fff"/>
            <path id="Path_6640" data-name="Path 6640" d="M218.445,98.617a.351.351,0,0,1,.68.033,8.445,8.445,0,0,0,3.728,5.413.352.352,0,0,1,0,.587,8.675,8.675,0,0,0-3.629,5.024.347.347,0,0,1-.337.26.351.351,0,0,1-.337-.263,8.652,8.652,0,0,0-3.706-5.038.363.363,0,0,1-.153-.285.356.356,0,0,1,.143-.293A10.79,10.79,0,0,0,218.445,98.617Z" transform="translate(-214.693 15.291)" fill="#fff"/>
            <path id="Path_6641" data-name="Path 6641" d="M253.5,121.317a1.121,1.121,0,1,1-1.118,1.121A1.121,1.121,0,0,1,253.5,121.317Z" transform="translate(-149.079 55.24)" fill="#fff"/>
            <path id="Path_6642" data-name="Path 6642" d="M217.156,132.572a1.487,1.487,0,1,1-1.488,1.488A1.487,1.487,0,0,1,217.156,132.572Z" transform="translate(-212.995 74.834)" fill="#fff"/>
            <path id="Path_6643" data-name="Path 6643" d="M226.987,101.956a1.734,1.734,0,1,1-1.735,1.735A1.735,1.735,0,0,1,226.987,101.956Z" transform="translate(-196.31 21.534)" fill="#fff"/>
            <path id="Path_6644" data-name="Path 6644" d="M348.452,87.446a.269.269,0,0,1,.269-.184.263.263,0,0,1,.247.211,6.361,6.361,0,0,0,2.81,4.081.266.266,0,0,1,0,.444,6.519,6.519,0,0,0-2.735,3.785.263.263,0,0,1-.51,0,6.535,6.535,0,0,0-2.793-3.8.268.268,0,0,1-.011-.436A8.127,8.127,0,0,0,348.452,87.446Z" transform="translate(13.247 -4.047)" fill="#fff"/>
          </g>
          <g id="Group_2793" data-name="Group 2793" transform="translate(172.87)">
            <path id="Path_6645" data-name="Path 6645" d="M300.5,73a1.121,1.121,0,1,1-1.121,1.121A1.122,1.122,0,0,1,300.5,73Z" transform="translate(-240.127 -27.976)" fill="#fff"/>
            <path id="Path_6646" data-name="Path 6646" d="M333.7,148.6a1.734,1.734,0,1,1-1.735,1.732A1.732,1.732,0,0,1,333.7,148.6Z" transform="translate(-183.41 103.644)" fill="#fff"/>
            <path id="Path_6647" data-name="Path 6647" d="M355.067,140.1a.272.272,0,0,1,.269-.186.265.265,0,0,1,.247.211,6.366,6.366,0,0,0,2.809,4.084.264.264,0,0,1,0,.441,6.533,6.533,0,0,0-2.735,3.788.264.264,0,0,1-.255.2.267.267,0,0,1-.255-.2,6.52,6.52,0,0,0-2.793-3.8.272.272,0,0,1-.118-.214.277.277,0,0,1,.107-.222A8.1,8.1,0,0,0,355.067,140.1Z" transform="translate(-148.107 88.519)" fill="#fff"/>
            <path id="Path_6648" data-name="Path 6648" d="M358.212,110.009a1.487,1.487,0,1,1-1.486,1.488A1.487,1.487,0,0,1,358.212,110.009Z" transform="translate(-140.294 36.453)" fill="#fff"/>
            <path id="Path_6649" data-name="Path 6649" d="M344.687,67.131a.354.354,0,0,1,.683.036A8.438,8.438,0,0,0,349.1,72.58a.358.358,0,0,1,.156.293.351.351,0,0,1-.156.293,8.668,8.668,0,0,0-3.629,5.024.346.346,0,0,1-.672,0,8.674,8.674,0,0,0-3.708-5.041.354.354,0,0,1-.154-.285.358.358,0,0,1,.143-.291A10.763,10.763,0,0,0,344.687,67.131Z" transform="translate(-167.785 -38.62)" fill="#fff"/>
            <circle id="Ellipse_118" data-name="Ellipse 118" cx="1.121" cy="1.121" r="1.121" transform="translate(187.002 206.651)" fill="#fff"/>
            <path id="Path_6650" data-name="Path 6650" d="M331.164,101a1.734,1.734,0,1,1-1.735,1.732A1.732,1.732,0,0,1,331.164,101Z" transform="translate(-187.816 20.762)" fill="#fff"/>
            <path id="Path_6651" data-name="Path 6651" d="M392.524,85.527a.266.266,0,0,1,.513.025,6.363,6.363,0,0,0,2.812,4.084.265.265,0,0,1,.118.222.272.272,0,0,1-.118.222,6.531,6.531,0,0,0-2.735,3.785.262.262,0,0,1-.507,0,6.533,6.533,0,0,0-2.8-3.8.258.258,0,0,1-.115-.214.265.265,0,0,1,.1-.219A8.131,8.131,0,0,0,392.524,85.527Z" transform="translate(-82.897 -6.489)" fill="#fff"/>
            <path id="Path_6652" data-name="Path 6652" d="M418.229,118.578a1.486,1.486,0,1,1-1.488,1.486A1.487,1.487,0,0,1,418.229,118.578Z" transform="translate(-35.812 51.371)" fill="#fff"/>
            <path id="Path_6653" data-name="Path 6653" d="M413.141,125.541a2.3,2.3,0,1,1-2.3,2.3A2.3,2.3,0,0,1,413.141,125.541Z" transform="translate(-46.083 63.493)" fill="#fff"/>
            <path id="Path_6654" data-name="Path 6654" d="M401.874,145.454a.353.353,0,0,1,.682.033,8.446,8.446,0,0,0,3.728,5.416.352.352,0,0,1,.159.291.362.362,0,0,1-.156.3,8.671,8.671,0,0,0-3.629,5.021.348.348,0,0,1-.674,0,8.652,8.652,0,0,0-3.706-5.038.358.358,0,0,1-.153-.285.352.352,0,0,1,.14-.291A10.775,10.775,0,0,0,401.874,145.454Z" transform="translate(-68.223 97.73)" fill="#fff"/>
            <path id="Path_6655" data-name="Path 6655" d="M320.116,66.478a1.12,1.12,0,1,1-1.121,1.118A1.12,1.12,0,0,1,320.116,66.478Z" transform="translate(-205.981 -39.332)" fill="#fff"/>
            <path id="Path_6656" data-name="Path 6656" d="M389.117,96.217a1.734,1.734,0,1,1-1.732,1.732A1.735,1.735,0,0,1,389.117,96.217Z" transform="translate(-86.918 12.442)" fill="#fff"/>
            <path id="Path_6657" data-name="Path 6657" d="M355.067,59.907a.268.268,0,0,1,.269-.186.263.263,0,0,1,.247.211,6.361,6.361,0,0,0,2.809,4.081.267.267,0,0,1,.121.222.272.272,0,0,1-.118.222,6.525,6.525,0,0,0-2.735,3.788.264.264,0,0,1-.51,0,6.52,6.52,0,0,0-2.793-3.8.268.268,0,0,1-.011-.436A8.114,8.114,0,0,0,355.067,59.907Z" transform="translate(-148.107 -51.097)" fill="#fff"/>
            <path id="Path_6658" data-name="Path 6658" d="M384.315,56.574a1.486,1.486,0,1,1-1.485,1.486A1.487,1.487,0,0,1,384.315,56.574Z" transform="translate(-94.85 -56.574)" fill="#fff"/>
            <circle id="Ellipse_119" data-name="Ellipse 119" cx="2.299" cy="2.299" r="2.299" transform="translate(372.171 80.914)" fill="#fff"/>
            <path id="Path_6659" data-name="Path 6659" d="M293.392,98.286a.352.352,0,0,1,.68.036,8.458,8.458,0,0,0,3.728,5.413.352.352,0,0,1,0,.587,8.668,8.668,0,0,0-3.629,5.024.347.347,0,0,1-.337.26.354.354,0,0,1-.337-.263,8.658,8.658,0,0,0-3.706-5.041.354.354,0,0,1-.011-.576A10.8,10.8,0,0,0,293.392,98.286Z" transform="translate(-257.086 15.619)" fill="#fff"/>
            <path id="Path_6660" data-name="Path 6660" d="M328.449,120.989a1.121,1.121,0,1,1-1.121,1.121A1.121,1.121,0,0,1,328.449,120.989Z" transform="translate(-191.474 55.568)" fill="#fff"/>
            <path id="Path_6661" data-name="Path 6661" d="M292.1,132.244a1.487,1.487,0,1,1-1.486,1.486A1.487,1.487,0,0,1,292.1,132.244Z" transform="translate(-255.388 75.162)" fill="#fff"/>
            <path id="Path_6662" data-name="Path 6662" d="M301.934,101.628a1.734,1.734,0,1,1-1.735,1.735A1.735,1.735,0,0,1,301.934,101.628Z" transform="translate(-238.703 21.862)" fill="#fff"/>
            <path id="Path_6663" data-name="Path 6663" d="M297.556,143.345a.351.351,0,0,1,.68.033,8.458,8.458,0,0,0,3.728,5.413.352.352,0,0,1,0,.587,8.667,8.667,0,0,0-3.629,5.024.347.347,0,0,1-.337.26.351.351,0,0,1-.337-.263,8.657,8.657,0,0,0-3.706-5.041.354.354,0,0,1-.011-.576A10.8,10.8,0,0,0,297.556,143.345Z" transform="translate(-249.837 94.058)" fill="#fff"/>
            <path id="Path_6664" data-name="Path 6664" d="M423.4,87.12a.266.266,0,0,1,.266-.186.274.274,0,0,1,.25.211,6.365,6.365,0,0,0,2.809,4.084.273.273,0,0,1,.121.219.265.265,0,0,1-.118.222,6.55,6.55,0,0,0-2.738,3.788.261.261,0,0,1-.252.2.264.264,0,0,1-.255-.2,6.534,6.534,0,0,0-2.8-3.8.277.277,0,0,1-.115-.214.264.264,0,0,1,.107-.219A8.127,8.127,0,0,0,423.4,87.12Z" transform="translate(-29.146 -3.721)" fill="#fff"/>
            <path id="Path_6665" data-name="Path 6665" d="M280.592,130.565a.265.265,0,0,1,.513.025,6.375,6.375,0,0,0,2.812,4.081.268.268,0,0,1,0,.444,6.537,6.537,0,0,0-2.735,3.788.262.262,0,0,1-.255.195.258.258,0,0,1-.252-.2,6.537,6.537,0,0,0-2.8-3.8.263.263,0,0,1-.115-.217.26.26,0,0,1,.107-.219A8.148,8.148,0,0,0,280.592,130.565Z" transform="translate(-277.763 71.914)" fill="#fff"/>
          </g>
        </g>
        <g id="stars-3" data-name="stars" transform="translate(0 291.778)">
          <g id="Group_2794" data-name="Group 2794" transform="translate(0 0.902)">
            <path id="Path_6666" data-name="Path 6666" d="M82.08,179.782a1.121,1.121,0,1,1-1.121,1.121A1.121,1.121,0,0,1,82.08,179.782Z" transform="translate(-54.259 -134.757)" fill="#fff"/>
            <path id="Path_6667" data-name="Path 6667" d="M115.273,255.385a1.734,1.734,0,1,1-1.735,1.732A1.732,1.732,0,0,1,115.273,255.385Z" transform="translate(2.458 -3.137)" fill="#fff"/>
            <path id="Path_6668" data-name="Path 6668" d="M136.645,246.884a.271.271,0,0,1,.269-.186.265.265,0,0,1,.247.211,6.354,6.354,0,0,0,2.809,4.081.278.278,0,0,1,.121.222.268.268,0,0,1-.118.222,6.533,6.533,0,0,0-2.735,3.788.264.264,0,0,1-.51,0,6.543,6.543,0,0,0-2.793-3.8.272.272,0,0,1-.118-.214.277.277,0,0,1,.107-.222A8.12,8.12,0,0,0,136.645,246.884Z" transform="translate(37.761 -18.262)" fill="#fff"/>
            <path id="Path_6669" data-name="Path 6669" d="M139.79,216.79a1.487,1.487,0,1,1-1.486,1.486A1.487,1.487,0,0,1,139.79,216.79Z" transform="translate(45.574 -70.328)" fill="#fff"/>
            <path id="Path_6670" data-name="Path 6670" d="M126.265,173.914a.351.351,0,0,1,.68.033,8.457,8.457,0,0,0,3.728,5.416.352.352,0,0,1,0,.587,8.67,8.67,0,0,0-3.629,5.021.341.341,0,0,1-.337.26.349.349,0,0,1-.337-.26,8.658,8.658,0,0,0-3.706-5.041.354.354,0,0,1-.154-.285.351.351,0,0,1,.143-.291A10.8,10.8,0,0,0,126.265,173.914Z" transform="translate(18.083 -145.403)" fill="#fff"/>
            <circle id="Ellipse_120" data-name="Ellipse 120" cx="1.121" cy="1.121" r="1.121" transform="translate(154.447 206.651)" fill="#fff"/>
            <path id="Path_6671" data-name="Path 6671" d="M112.742,207.777a1.732,1.732,0,1,1-1.735,1.732A1.732,1.732,0,0,1,112.742,207.777Z" transform="translate(-1.948 -86.019)" fill="#fff"/>
            <path id="Path_6672" data-name="Path 6672" d="M174.1,192.308a.266.266,0,0,1,.269-.184.263.263,0,0,1,.247.208,6.363,6.363,0,0,0,2.812,4.084.272.272,0,0,1,.118.222.263.263,0,0,1-.118.219,6.533,6.533,0,0,0-2.735,3.788.261.261,0,0,1-.255.2.264.264,0,0,1-.255-.2,6.517,6.517,0,0,0-2.793-3.8.268.268,0,0,1-.118-.214.275.275,0,0,1,.107-.219A8.11,8.11,0,0,0,174.1,192.308Z" transform="translate(102.969 -113.27)" fill="#fff"/>
            <path id="Path_6673" data-name="Path 6673" d="M199.8,225.359a1.486,1.486,0,1,1-1.486,1.486A1.487,1.487,0,0,1,199.8,225.359Z" transform="translate(150.056 -55.41)" fill="#fff"/>
            <path id="Path_6674" data-name="Path 6674" d="M194.719,232.322a2.3,2.3,0,1,1-2.3,2.3A2.3,2.3,0,0,1,194.719,232.322Z" transform="translate(139.785 -43.288)" fill="#fff"/>
            <path id="Path_6675" data-name="Path 6675" d="M183.452,252.235a.353.353,0,0,1,.682.033,8.435,8.435,0,0,0,3.728,5.413.351.351,0,0,1,.156.293.357.357,0,0,1-.154.3,8.671,8.671,0,0,0-3.629,5.021.348.348,0,0,1-.674,0,8.664,8.664,0,0,0-3.706-5.038.356.356,0,0,1-.014-.576A10.775,10.775,0,0,0,183.452,252.235Z" transform="translate(117.645 -9.051)" fill="#fff"/>
            <path id="Path_6676" data-name="Path 6676" d="M101.691,173.258a1.121,1.121,0,1,1-1.118,1.121A1.122,1.122,0,0,1,101.691,173.258Z" transform="translate(-20.113 -146.115)" fill="#fff"/>
            <path id="Path_6677" data-name="Path 6677" d="M170.7,203a1.734,1.734,0,1,1-1.732,1.732A1.735,1.735,0,0,1,170.7,203Z" transform="translate(98.949 -94.339)" fill="#fff"/>
            <path id="Path_6678" data-name="Path 6678" d="M136.645,166.685a.269.269,0,0,1,.269-.184.263.263,0,0,1,.247.211,6.361,6.361,0,0,0,2.809,4.081.266.266,0,0,1,0,.444,6.519,6.519,0,0,0-2.735,3.785.263.263,0,0,1-.51,0,6.549,6.549,0,0,0-2.793-3.8.264.264,0,0,1-.118-.214.275.275,0,0,1,.107-.219A8.127,8.127,0,0,0,136.645,166.685Z" transform="translate(37.761 -157.878)" fill="#fff"/>
            <path id="Path_6679" data-name="Path 6679" d="M165.893,163.355a1.486,1.486,0,1,1-1.486,1.486A1.487,1.487,0,0,1,165.893,163.355Z" transform="translate(91.018 -163.355)" fill="#fff"/>
            <circle id="Ellipse_121" data-name="Ellipse 121" cx="2.299" cy="2.299" r="2.299" transform="translate(339.616 80.914)" fill="#fff"/>
            <path id="Path_6680" data-name="Path 6680" d="M74.968,205.067a.355.355,0,0,1,.354-.244.348.348,0,0,1,.329.277,8.456,8.456,0,0,0,3.728,5.416.36.36,0,0,1,.159.293.354.354,0,0,1-.156.293,8.67,8.67,0,0,0-3.629,5.021.341.341,0,0,1-.337.26.346.346,0,0,1-.337-.26,8.658,8.658,0,0,0-3.706-5.041.356.356,0,0,1-.014-.576A10.763,10.763,0,0,0,74.968,205.067Z" transform="translate(-71.218 -91.162)" fill="#fff"/>
            <path id="Path_6681" data-name="Path 6681" d="M110.027,227.77a1.121,1.121,0,1,1-1.121,1.121A1.121,1.121,0,0,1,110.027,227.77Z" transform="translate(-5.606 -51.213)" fill="#fff"/>
            <path id="Path_6682" data-name="Path 6682" d="M73.679,239.025a1.487,1.487,0,1,1-1.486,1.486A1.487,1.487,0,0,1,73.679,239.025Z" transform="translate(-69.52 -31.619)" fill="#fff"/>
            <path id="Path_6683" data-name="Path 6683" d="M83.509,208.409a1.734,1.734,0,1,1-1.732,1.732A1.733,1.733,0,0,1,83.509,208.409Z" transform="translate(-52.835 -84.919)" fill="#fff"/>
            <path id="Path_6684" data-name="Path 6684" d="M204.977,193.9a.265.265,0,0,1,.513.025,6.38,6.38,0,0,0,2.812,4.084.267.267,0,0,1,0,.441,6.538,6.538,0,0,0-2.738,3.788.261.261,0,0,1-.507,0,6.536,6.536,0,0,0-2.8-3.8.269.269,0,0,1-.115-.214.264.264,0,0,1,.107-.219A8.127,8.127,0,0,0,204.977,193.9Z" transform="translate(156.722 -110.502)" fill="#fff"/>
          </g>
          <g id="Group_2795" data-name="Group 2795" transform="translate(172.868)">
            <path id="Path_6685" data-name="Path 6685" d="M157.027,179.454a1.121,1.121,0,1,1-1.121,1.121A1.121,1.121,0,0,1,157.027,179.454Z" transform="translate(-96.65 -134.426)" fill="#fff"/>
            <path id="Path_6686" data-name="Path 6686" d="M190.217,255.057a1.732,1.732,0,1,1-1.732,1.732A1.733,1.733,0,0,1,190.217,255.057Z" transform="translate(-39.932 -2.806)" fill="#fff"/>
            <path id="Path_6687" data-name="Path 6687" d="M211.592,246.553a.264.264,0,0,1,.266-.184.268.268,0,0,1,.249.211,6.361,6.361,0,0,0,2.809,4.081.266.266,0,0,1,0,.444,6.545,6.545,0,0,0-2.738,3.785.258.258,0,0,1-.252.2.264.264,0,0,1-.255-.2,6.536,6.536,0,0,0-2.8-3.8.278.278,0,0,1-.115-.217.267.267,0,0,1,.107-.219A8.127,8.127,0,0,0,211.592,246.553Z" transform="translate(-4.629 -17.932)" fill="#fff"/>
            <path id="Path_6688" data-name="Path 6688" d="M214.738,216.462a1.486,1.486,0,1,1-1.488,1.486A1.487,1.487,0,0,1,214.738,216.462Z" transform="translate(3.182 -69.998)" fill="#fff"/>
            <path id="Path_6689" data-name="Path 6689" d="M201.212,173.586a.351.351,0,0,1,.68.033,8.445,8.445,0,0,0,3.728,5.413.353.353,0,0,1,.159.293.359.359,0,0,1-.156.3,8.67,8.67,0,0,0-3.629,5.021.348.348,0,0,1-.674,0,8.652,8.652,0,0,0-3.706-5.038.358.358,0,0,1-.153-.285.352.352,0,0,1,.14-.291A10.8,10.8,0,0,0,201.212,173.586Z" transform="translate(-24.307 -145.072)" fill="#fff"/>
            <circle id="Ellipse_122" data-name="Ellipse 122" cx="1.121" cy="1.121" r="1.121" transform="translate(187.003 206.653)" fill="#fff"/>
            <path id="Path_6690" data-name="Path 6690" d="M187.689,207.448a1.734,1.734,0,1,1-1.735,1.735A1.735,1.735,0,0,1,187.689,207.448Z" transform="translate(-44.338 -85.69)" fill="#fff"/>
            <path id="Path_6691" data-name="Path 6691" d="M249.048,191.982a.271.271,0,0,1,.269-.186.265.265,0,0,1,.247.211,6.366,6.366,0,0,0,2.81,4.084.264.264,0,0,1,0,.441,6.533,6.533,0,0,0-2.735,3.788.266.266,0,0,1-.255.2.263.263,0,0,1-.255-.2,6.543,6.543,0,0,0-2.793-3.8.265.265,0,0,1-.011-.433A8.11,8.11,0,0,0,249.048,191.982Z" transform="translate(60.579 -112.941)" fill="#fff"/>
            <path id="Path_6692" data-name="Path 6692" d="M274.752,225.03a1.487,1.487,0,1,1-1.486,1.488A1.488,1.488,0,0,1,274.752,225.03Z" transform="translate(107.666 -55.081)" fill="#fff"/>
            <path id="Path_6693" data-name="Path 6693" d="M269.663,231.994a2.3,2.3,0,1,1-2.3,2.3A2.3,2.3,0,0,1,269.663,231.994Z" transform="translate(97.394 -42.957)" fill="#fff"/>
            <path id="Path_6694" data-name="Path 6694" d="M258.4,251.907a.353.353,0,0,1,.682.033,8.434,8.434,0,0,0,3.728,5.413.355.355,0,0,1,0,.587,8.656,8.656,0,0,0-3.629,5.024.352.352,0,0,1-.34.26.346.346,0,0,1-.334-.263,8.681,8.681,0,0,0-3.706-5.041.349.349,0,0,1-.156-.282.372.372,0,0,1,.143-.293A10.755,10.755,0,0,0,258.4,251.907Z" transform="translate(75.253 -8.721)" fill="#fff"/>
            <path id="Path_6695" data-name="Path 6695" d="M176.64,172.93a1.121,1.121,0,1,1-1.121,1.121A1.121,1.121,0,0,1,176.64,172.93Z" transform="translate(-62.505 -145.784)" fill="#fff"/>
            <path id="Path_6696" data-name="Path 6696" d="M245.642,202.669a1.734,1.734,0,1,1-1.732,1.735A1.735,1.735,0,0,1,245.642,202.669Z" transform="translate(56.559 -94.01)" fill="#fff"/>
            <path id="Path_6697" data-name="Path 6697" d="M211.592,166.359a.266.266,0,0,1,.266-.186.274.274,0,0,1,.249.211,6.365,6.365,0,0,0,2.809,4.084.273.273,0,0,1,.121.219.265.265,0,0,1-.118.222,6.55,6.55,0,0,0-2.738,3.788.261.261,0,0,1-.252.2.264.264,0,0,1-.255-.2,6.533,6.533,0,0,0-2.8-3.8.277.277,0,0,1-.115-.214.264.264,0,0,1,.107-.219A8.127,8.127,0,0,0,211.592,166.359Z" transform="translate(-4.629 -157.549)" fill="#fff"/>
            <path id="Path_6698" data-name="Path 6698" d="M240.84,163.026a1.487,1.487,0,1,1-1.486,1.488A1.487,1.487,0,0,1,240.84,163.026Z" transform="translate(48.628 -163.026)" fill="#fff"/>
            <circle id="Ellipse_123" data-name="Ellipse 123" cx="2.299" cy="2.299" r="2.299" transform="translate(372.172 80.915)" fill="#fff"/>
            <path id="Path_6699" data-name="Path 6699" d="M149.915,204.741a.353.353,0,0,1,.682.033,8.435,8.435,0,0,0,3.728,5.413.36.36,0,0,1,.159.293.367.367,0,0,1-.156.3A8.67,8.67,0,0,0,150.7,215.8a.348.348,0,0,1-.674,0,8.652,8.652,0,0,0-3.706-5.038.359.359,0,0,1-.154-.285.352.352,0,0,1,.14-.291A10.775,10.775,0,0,0,149.915,204.741Z" transform="translate(-113.608 -90.833)" fill="#fff"/>
            <path id="Path_6700" data-name="Path 6700" d="M184.974,227.442a1.12,1.12,0,1,1-1.121,1.118A1.12,1.12,0,0,1,184.974,227.442Z" transform="translate(-47.996 -50.882)" fill="#fff"/>
            <path id="Path_6701" data-name="Path 6701" d="M148.626,238.7a1.486,1.486,0,1,1-1.486,1.486A1.487,1.487,0,0,1,148.626,238.7Z" transform="translate(-111.911 -31.288)" fill="#fff"/>
            <path id="Path_6702" data-name="Path 6702" d="M158.456,208.081a1.734,1.734,0,1,1-1.732,1.732A1.735,1.735,0,0,1,158.456,208.081Z" transform="translate(-95.226 -84.588)" fill="#fff"/>
            <path id="Path_6703" data-name="Path 6703" d="M154.079,249.8a.353.353,0,0,1,.682.033,8.456,8.456,0,0,0,3.728,5.416.352.352,0,0,1,.159.291.356.356,0,0,1-.156.3,8.67,8.67,0,0,0-3.629,5.021.348.348,0,0,1-.674,0,8.652,8.652,0,0,0-3.706-5.038.359.359,0,0,1-.154-.285.352.352,0,0,1,.14-.291A10.775,10.775,0,0,0,154.079,249.8Z" transform="translate(-106.359 -12.394)" fill="#fff"/>
            <path id="Path_6704" data-name="Path 6704" d="M279.924,193.573a.265.265,0,0,1,.513.025,6.368,6.368,0,0,0,2.812,4.081.268.268,0,0,1,.118.222.273.273,0,0,1-.115.222,6.53,6.53,0,0,0-2.738,3.788.262.262,0,0,1-.255.195.258.258,0,0,1-.252-.2,6.537,6.537,0,0,0-2.8-3.8.269.269,0,0,1-.008-.436A8.137,8.137,0,0,0,279.924,193.573Z" transform="translate(114.332 -110.172)" fill="#fff"/>
            <path id="Path_6705" data-name="Path 6705" d="M137.116,237.015a.266.266,0,0,1,.269-.184.263.263,0,0,1,.247.208,6.363,6.363,0,0,0,2.812,4.084.27.27,0,0,1,.118.219.265.265,0,0,1-.118.222,6.533,6.533,0,0,0-2.735,3.788.261.261,0,0,1-.255.2.264.264,0,0,1-.255-.2,6.517,6.517,0,0,0-2.793-3.8.268.268,0,0,1-.118-.214.275.275,0,0,1,.107-.219A8.11,8.11,0,0,0,137.116,237.015Z" transform="translate(-134.287 -34.537)" fill="#fff"/>
          </g>
        </g>
        <g id="stars-4" data-name="stars" transform="translate(393.255 291.328)">
          <g id="Group_2796" data-name="Group 2796" transform="translate(0 0.902)">
            <path id="Path_6706" data-name="Path 6706" d="M225.553,179.618a1.121,1.121,0,1,1-1.118,1.121A1.121,1.121,0,0,1,225.553,179.618Z" transform="translate(-197.733 -134.593)" fill="#fff"/>
            <path id="Path_6707" data-name="Path 6707" d="M258.748,255.221a1.734,1.734,0,1,1-1.735,1.732A1.732,1.732,0,0,1,258.748,255.221Z" transform="translate(-141.017 -2.973)" fill="#fff"/>
            <path id="Path_6708" data-name="Path 6708" d="M280.122,246.72a.265.265,0,0,1,.512.025,6.365,6.365,0,0,0,2.812,4.081.272.272,0,0,1,.118.222.268.268,0,0,1-.118.222,6.536,6.536,0,0,0-2.735,3.788.264.264,0,0,1-.51,0,6.52,6.52,0,0,0-2.793-3.8.267.267,0,0,1-.011-.436A8.136,8.136,0,0,0,280.122,246.72Z" transform="translate(-105.714 -18.098)" fill="#fff"/>
            <path id="Path_6709" data-name="Path 6709" d="M283.265,216.626a1.487,1.487,0,1,1-1.486,1.486A1.487,1.487,0,0,1,283.265,216.626Z" transform="translate(-97.901 -70.164)" fill="#fff"/>
            <path id="Path_6710" data-name="Path 6710" d="M269.74,173.75a.353.353,0,0,1,.682.033,8.447,8.447,0,0,0,3.728,5.416.353.353,0,0,1,.156.291.36.36,0,0,1-.154.3,8.647,8.647,0,0,0-3.629,5.021.352.352,0,0,1-.34.26.343.343,0,0,1-.334-.26,8.673,8.673,0,0,0-3.706-5.041.354.354,0,0,1-.156-.285.366.366,0,0,1,.143-.291A10.775,10.775,0,0,0,269.74,173.75Z" transform="translate(-125.392 -145.239)" fill="#fff"/>
            <circle id="Ellipse_124" data-name="Ellipse 124" cx="1.121" cy="1.121" r="1.121" transform="translate(154.448 206.651)" fill="#fff"/>
            <path id="Path_6711" data-name="Path 6711" d="M256.215,207.612a1.734,1.734,0,1,1-1.732,1.735A1.735,1.735,0,0,1,256.215,207.612Z" transform="translate(-145.421 -85.857)" fill="#fff"/>
            <path id="Path_6712" data-name="Path 6712" d="M317.577,192.146a.265.265,0,0,1,.513.025,6.38,6.38,0,0,0,2.812,4.084.265.265,0,0,1,0,.441,6.546,6.546,0,0,0-2.735,3.788.264.264,0,0,1-.255.2.259.259,0,0,1-.252-.2,6.533,6.533,0,0,0-2.8-3.8.262.262,0,0,1-.115-.214.257.257,0,0,1,.107-.219A8.144,8.144,0,0,0,317.577,192.146Z" transform="translate(-40.504 -113.108)" fill="#fff"/>
            <path id="Path_6713" data-name="Path 6713" d="M343.282,225.2a1.486,1.486,0,1,1-1.488,1.486A1.487,1.487,0,0,1,343.282,225.2Z" transform="translate(6.581 -55.246)" fill="#fff"/>
            <path id="Path_6714" data-name="Path 6714" d="M338.194,232.158a2.3,2.3,0,1,1-2.3,2.3A2.3,2.3,0,0,1,338.194,232.158Z" transform="translate(-3.69 -43.124)" fill="#fff"/>
            <path id="Path_6715" data-name="Path 6715" d="M326.927,252.071a.353.353,0,0,1,.682.033,8.444,8.444,0,0,0,3.728,5.413.36.36,0,0,1,.159.293.351.351,0,0,1-.156.293,8.684,8.684,0,0,0-3.629,5.024.348.348,0,0,1-.674,0,8.652,8.652,0,0,0-3.706-5.038.362.362,0,0,1-.154-.285.352.352,0,0,1,.14-.291A10.775,10.775,0,0,0,326.927,252.071Z" transform="translate(-25.83 -8.887)" fill="#fff"/>
            <path id="Path_6716" data-name="Path 6716" d="M245.169,173.094a1.121,1.121,0,1,1-1.121,1.121A1.122,1.122,0,0,1,245.169,173.094Z" transform="translate(-163.588 -145.951)" fill="#fff"/>
            <path id="Path_6717" data-name="Path 6717" d="M314.17,202.834a1.732,1.732,0,1,1-1.732,1.732A1.735,1.735,0,0,1,314.17,202.834Z" transform="translate(-44.526 -94.175)" fill="#fff"/>
            <path id="Path_6718" data-name="Path 6718" d="M280.122,166.521a.266.266,0,0,1,.512.025,6.364,6.364,0,0,0,2.812,4.084.272.272,0,0,1,.118.222.263.263,0,0,1-.118.219,6.545,6.545,0,0,0-2.735,3.788.261.261,0,0,1-.255.2.264.264,0,0,1-.255-.2,6.518,6.518,0,0,0-2.793-3.8.268.268,0,0,1-.118-.214.275.275,0,0,1,.107-.219A8.131,8.131,0,0,0,280.122,166.521Z" transform="translate(-105.714 -157.714)" fill="#fff"/>
            <path id="Path_6719" data-name="Path 6719" d="M309.368,163.191a1.486,1.486,0,1,1-1.486,1.486A1.486,1.486,0,0,1,309.368,163.191Z" transform="translate(-52.457 -163.191)" fill="#fff"/>
            <circle id="Ellipse_125" data-name="Ellipse 125" cx="2.299" cy="2.299" r="2.299" transform="translate(339.617 80.913)" fill="#fff"/>
            <path id="Path_6720" data-name="Path 6720" d="M218.445,204.9a.351.351,0,0,1,.68.033,8.456,8.456,0,0,0,3.728,5.416.349.349,0,0,1,.159.291.356.356,0,0,1-.156.3,8.67,8.67,0,0,0-3.629,5.021.348.348,0,0,1-.674,0,8.649,8.649,0,0,0-3.706-5.041.358.358,0,0,1-.153-.285.351.351,0,0,1,.143-.291A10.81,10.81,0,0,0,218.445,204.9Z" transform="translate(-214.693 -91)" fill="#fff"/>
            <path id="Path_6721" data-name="Path 6721" d="M253.5,227.606a1.12,1.12,0,1,1-1.118,1.121A1.121,1.121,0,0,1,253.5,227.606Z" transform="translate(-149.079 -51.049)" fill="#fff"/>
            <path id="Path_6722" data-name="Path 6722" d="M217.156,238.861a1.486,1.486,0,1,1-1.488,1.486A1.487,1.487,0,0,1,217.156,238.861Z" transform="translate(-212.995 -31.455)" fill="#fff"/>
            <path id="Path_6723" data-name="Path 6723" d="M226.987,208.245a1.734,1.734,0,1,1-1.735,1.732A1.732,1.732,0,0,1,226.987,208.245Z" transform="translate(-196.31 -84.755)" fill="#fff"/>
            <path id="Path_6724" data-name="Path 6724" d="M348.452,193.737a.272.272,0,0,1,.269-.186.265.265,0,0,1,.247.211,6.366,6.366,0,0,0,2.81,4.084.273.273,0,0,1,.121.219.268.268,0,0,1-.118.222,6.533,6.533,0,0,0-2.735,3.788.263.263,0,0,1-.51,0,6.543,6.543,0,0,0-2.793-3.8.272.272,0,0,1-.118-.214.277.277,0,0,1,.107-.222A8.119,8.119,0,0,0,348.452,193.737Z" transform="translate(13.247 -110.338)" fill="#fff"/>
          </g>
          <g id="Group_2797" data-name="Group 2797" transform="translate(172.87)">
            <path id="Path_6725" data-name="Path 6725" d="M300.5,179.29a1.121,1.121,0,1,1-1.121,1.121A1.121,1.121,0,0,1,300.5,179.29Z" transform="translate(-240.127 -134.262)" fill="#fff"/>
            <path id="Path_6726" data-name="Path 6726" d="M333.7,254.892a1.734,1.734,0,1,1-1.735,1.735A1.735,1.735,0,0,1,333.7,254.892Z" transform="translate(-183.41 -2.644)" fill="#fff"/>
            <path id="Path_6727" data-name="Path 6727" d="M355.067,246.389a.266.266,0,0,1,.269-.184.263.263,0,0,1,.247.208,6.359,6.359,0,0,0,2.809,4.084.267.267,0,0,1,.121.222.272.272,0,0,1-.118.222,6.52,6.52,0,0,0-2.735,3.785.261.261,0,0,1-.255.2.264.264,0,0,1-.255-.2,6.517,6.517,0,0,0-2.793-3.8.268.268,0,0,1-.118-.214.275.275,0,0,1,.107-.219A8.11,8.11,0,0,0,355.067,246.389Z" transform="translate(-148.107 -17.768)" fill="#fff"/>
            <path id="Path_6728" data-name="Path 6728" d="M358.212,216.3a1.486,1.486,0,1,1-1.486,1.486A1.487,1.487,0,0,1,358.212,216.3Z" transform="translate(-140.294 -69.834)" fill="#fff"/>
            <path id="Path_6729" data-name="Path 6729" d="M344.687,173.422a.354.354,0,0,1,.354-.247.359.359,0,0,1,.329.28,8.425,8.425,0,0,0,3.728,5.413.358.358,0,0,1,.156.293.351.351,0,0,1-.156.293,8.685,8.685,0,0,0-3.629,5.024.346.346,0,0,1-.672,0,8.668,8.668,0,0,0-3.708-5.038.362.362,0,0,1-.154-.285.355.355,0,0,1,.143-.291A10.775,10.775,0,0,0,344.687,173.422Z" transform="translate(-167.785 -144.908)" fill="#fff"/>
            <circle id="Ellipse_126" data-name="Ellipse 126" cx="1.121" cy="1.121" r="1.121" transform="translate(187.002 206.652)" fill="#fff"/>
            <path id="Path_6730" data-name="Path 6730" d="M331.164,207.284a1.734,1.734,0,1,1-1.735,1.735A1.735,1.735,0,0,1,331.164,207.284Z" transform="translate(-187.816 -85.526)" fill="#fff"/>
            <path id="Path_6731" data-name="Path 6731" d="M392.524,191.818a.265.265,0,0,1,.513.025,6.358,6.358,0,0,0,2.812,4.081.268.268,0,0,1,0,.444,6.545,6.545,0,0,0-2.735,3.788.259.259,0,0,1-.255.195.256.256,0,0,1-.252-.2,6.536,6.536,0,0,0-2.8-3.8.262.262,0,0,1-.115-.214.267.267,0,0,1,.1-.222A8.123,8.123,0,0,0,392.524,191.818Z" transform="translate(-82.897 -112.777)" fill="#fff"/>
            <path id="Path_6732" data-name="Path 6732" d="M418.229,224.866a1.487,1.487,0,1,1-1.488,1.488A1.487,1.487,0,0,1,418.229,224.866Z" transform="translate(-35.812 -54.917)" fill="#fff"/>
            <path id="Path_6733" data-name="Path 6733" d="M413.141,231.83a2.3,2.3,0,1,1-2.3,2.3A2.3,2.3,0,0,1,413.141,231.83Z" transform="translate(-46.083 -42.793)" fill="#fff"/>
            <path id="Path_6734" data-name="Path 6734" d="M401.874,251.743a.353.353,0,0,1,.682.033,8.448,8.448,0,0,0,3.728,5.413.352.352,0,0,1,0,.587,8.668,8.668,0,0,0-3.629,5.024.348.348,0,0,1-.674,0,8.658,8.658,0,0,0-3.706-5.041.353.353,0,0,1-.153-.282.357.357,0,0,1,.14-.293A10.767,10.767,0,0,0,401.874,251.743Z" transform="translate(-68.223 -8.557)" fill="#fff"/>
            <path id="Path_6735" data-name="Path 6735" d="M320.116,172.766a1.121,1.121,0,1,1-1.121,1.121A1.12,1.12,0,0,1,320.116,172.766Z" transform="translate(-205.981 -145.62)" fill="#fff"/>
            <path id="Path_6736" data-name="Path 6736" d="M389.117,202.5a1.734,1.734,0,1,1-1.732,1.735A1.737,1.737,0,0,1,389.117,202.5Z" transform="translate(-86.918 -93.846)" fill="#fff"/>
            <path id="Path_6737" data-name="Path 6737" d="M355.067,166.195a.272.272,0,0,1,.269-.186.266.266,0,0,1,.247.211,6.366,6.366,0,0,0,2.809,4.084.264.264,0,0,1,0,.441,6.534,6.534,0,0,0-2.735,3.788.264.264,0,0,1-.255.2.267.267,0,0,1-.255-.2,6.52,6.52,0,0,0-2.793-3.8.265.265,0,0,1-.011-.433A8.122,8.122,0,0,0,355.067,166.195Z" transform="translate(-148.107 -157.385)" fill="#fff"/>
            <path id="Path_6738" data-name="Path 6738" d="M384.315,162.862a1.487,1.487,0,1,1-1.485,1.486A1.487,1.487,0,0,1,384.315,162.862Z" transform="translate(-94.85 -162.862)" fill="#fff"/>
            <circle id="Ellipse_127" data-name="Ellipse 127" cx="2.299" cy="2.299" r="2.299" transform="translate(372.171 80.915)" fill="#fff"/>
            <path id="Path_6739" data-name="Path 6739" d="M293.392,204.577a.351.351,0,0,1,.68.033,8.445,8.445,0,0,0,3.728,5.413.352.352,0,0,1,0,.587,8.684,8.684,0,0,0-3.629,5.024.347.347,0,0,1-.337.26.351.351,0,0,1-.337-.263,8.652,8.652,0,0,0-3.706-5.038.362.362,0,0,1-.154-.285.347.347,0,0,1,.142-.291A10.809,10.809,0,0,0,293.392,204.577Z" transform="translate(-257.086 -90.669)" fill="#fff"/>
            <path id="Path_6740" data-name="Path 6740" d="M328.449,227.277a1.121,1.121,0,1,1-1.121,1.121A1.122,1.122,0,0,1,328.449,227.277Z" transform="translate(-191.474 -50.72)" fill="#fff"/>
            <path id="Path_6741" data-name="Path 6741" d="M292.1,238.533a1.486,1.486,0,1,1-1.486,1.486A1.486,1.486,0,0,1,292.1,238.533Z" transform="translate(-255.388 -31.124)" fill="#fff"/>
            <path id="Path_6742" data-name="Path 6742" d="M301.934,207.917a1.732,1.732,0,1,1-1.735,1.732A1.732,1.732,0,0,1,301.934,207.917Z" transform="translate(-238.703 -84.424)" fill="#fff"/>
            <path id="Path_6743" data-name="Path 6743" d="M297.556,249.633a.351.351,0,0,1,.68.033,8.445,8.445,0,0,0,3.728,5.413.353.353,0,0,1,.159.293.359.359,0,0,1-.156.3,8.67,8.67,0,0,0-3.629,5.021.348.348,0,0,1-.674,0,8.652,8.652,0,0,0-3.706-5.038.359.359,0,0,1-.153-.285.347.347,0,0,1,.143-.291A10.809,10.809,0,0,0,297.556,249.633Z" transform="translate(-249.837 -12.23)" fill="#fff"/>
            <path id="Path_6744" data-name="Path 6744" d="M423.4,193.409a.263.263,0,0,1,.266-.186.271.271,0,0,1,.25.211,6.36,6.36,0,0,0,2.809,4.081.266.266,0,0,1,0,.444,6.542,6.542,0,0,0-2.738,3.788.258.258,0,0,1-.252.195.264.264,0,0,1-.255-.2,6.536,6.536,0,0,0-2.8-3.8.278.278,0,0,1-.115-.217.268.268,0,0,1,.107-.219A8.131,8.131,0,0,0,423.4,193.409Z" transform="translate(-29.146 -110.008)" fill="#fff"/>
            <path id="Path_6745" data-name="Path 6745" d="M280.592,236.853a.265.265,0,0,1,.513.025,6.38,6.38,0,0,0,2.812,4.084.265.265,0,0,1,0,.441,6.545,6.545,0,0,0-2.735,3.788.264.264,0,0,1-.255.2.258.258,0,0,1-.252-.2,6.534,6.534,0,0,0-2.8-3.8.262.262,0,0,1-.115-.214.257.257,0,0,1,.107-.219A8.145,8.145,0,0,0,280.592,236.853Z" transform="translate(-277.763 -34.374)" fill="#fff"/>
          </g>
        </g>
        <g id="stars-5" data-name="stars" transform="translate(0 565.103)">
          <g id="Group_2798" data-name="Group 2798" transform="translate(0 0.899)">
            <path id="Path_6746" data-name="Path 6746" d="M82.08,279.5a1.121,1.121,0,1,1-1.121,1.121A1.122,1.122,0,0,1,82.08,279.5Z" transform="translate(-54.259 -234.476)" fill="#fff"/>
            <path id="Path_6747" data-name="Path 6747" d="M115.273,355.1a1.734,1.734,0,1,1-1.735,1.732A1.732,1.732,0,0,1,115.273,355.1Z" transform="translate(2.458 -102.856)" fill="#fff"/>
            <path id="Path_6748" data-name="Path 6748" d="M136.645,346.6a.271.271,0,0,1,.269-.186.266.266,0,0,1,.247.211,6.366,6.366,0,0,0,2.809,4.084.273.273,0,0,1,.121.219.265.265,0,0,1-.118.222,6.533,6.533,0,0,0-2.735,3.788.266.266,0,0,1-.255.2.263.263,0,0,1-.255-.2,6.543,6.543,0,0,0-2.793-3.8.265.265,0,0,1-.011-.433A8.127,8.127,0,0,0,136.645,346.6Z" transform="translate(37.761 -117.981)" fill="#fff"/>
            <path id="Path_6749" data-name="Path 6749" d="M139.79,316.509A1.487,1.487,0,1,1,138.3,318,1.487,1.487,0,0,1,139.79,316.509Z" transform="translate(45.574 -170.047)" fill="#fff"/>
            <path id="Path_6750" data-name="Path 6750" d="M126.265,273.634a.351.351,0,0,1,.68.033,8.458,8.458,0,0,0,3.728,5.413.352.352,0,0,1,0,.587,8.667,8.667,0,0,0-3.629,5.024.347.347,0,0,1-.337.26.351.351,0,0,1-.337-.263,8.658,8.658,0,0,0-3.706-5.041.354.354,0,0,1-.011-.576A10.8,10.8,0,0,0,126.265,273.634Z" transform="translate(18.083 -245.12)" fill="#fff"/>
            <circle id="Ellipse_128" data-name="Ellipse 128" cx="1.121" cy="1.121" r="1.121" transform="translate(154.447 206.652)" fill="#fff"/>
            <path id="Path_6751" data-name="Path 6751" d="M112.742,307.5a1.734,1.734,0,1,1-1.735,1.732A1.732,1.732,0,0,1,112.742,307.5Z" transform="translate(-1.948 -185.738)" fill="#fff"/>
            <path id="Path_6752" data-name="Path 6752" d="M174.1,292.027a.269.269,0,0,1,.269-.184.263.263,0,0,1,.247.211,6.365,6.365,0,0,0,2.812,4.081.268.268,0,0,1,0,.444,6.519,6.519,0,0,0-2.735,3.785.261.261,0,0,1-.255.2.264.264,0,0,1-.255-.2,6.526,6.526,0,0,0-2.793-3.8.264.264,0,0,1-.118-.214.275.275,0,0,1,.107-.219A8.11,8.11,0,0,0,174.1,292.027Z" transform="translate(102.969 -212.989)" fill="#fff"/>
            <path id="Path_6753" data-name="Path 6753" d="M199.8,325.078a1.486,1.486,0,1,1-1.486,1.486A1.487,1.487,0,0,1,199.8,325.078Z" transform="translate(150.056 -155.129)" fill="#fff"/>
            <path id="Path_6754" data-name="Path 6754" d="M194.719,332.041a2.3,2.3,0,1,1-2.3,2.3A2.3,2.3,0,0,1,194.719,332.041Z" transform="translate(139.785 -143.007)" fill="#fff"/>
            <path id="Path_6755" data-name="Path 6755" d="M183.452,351.954a.357.357,0,0,1,.354-.247.353.353,0,0,1,.329.28,8.446,8.446,0,0,0,3.728,5.416.342.342,0,0,1,.156.29.353.353,0,0,1-.154.3,8.67,8.67,0,0,0-3.629,5.021.348.348,0,0,1-.674,0,8.661,8.661,0,0,0-3.706-5.041.356.356,0,0,1-.014-.576A10.775,10.775,0,0,0,183.452,351.954Z" transform="translate(117.645 -108.77)" fill="#fff"/>
            <path id="Path_6756" data-name="Path 6756" d="M101.691,272.978a1.12,1.12,0,1,1-1.118,1.121A1.121,1.121,0,0,1,101.691,272.978Z" transform="translate(-20.113 -245.832)" fill="#fff"/>
            <path id="Path_6757" data-name="Path 6757" d="M170.7,302.717a1.734,1.734,0,1,1-1.732,1.732A1.735,1.735,0,0,1,170.7,302.717Z" transform="translate(98.949 -194.058)" fill="#fff"/>
            <path id="Path_6758" data-name="Path 6758" d="M136.645,266.406a.271.271,0,0,1,.269-.186.265.265,0,0,1,.247.211,6.361,6.361,0,0,0,2.809,4.081.274.274,0,0,1,.121.222.268.268,0,0,1-.118.222,6.525,6.525,0,0,0-2.735,3.788.264.264,0,0,1-.51,0,6.543,6.543,0,0,0-2.793-3.8.273.273,0,0,1-.118-.216.275.275,0,0,1,.107-.219A8.131,8.131,0,0,0,136.645,266.406Z" transform="translate(37.761 -257.597)" fill="#fff"/>
            <path id="Path_6759" data-name="Path 6759" d="M165.893,263.074a1.486,1.486,0,1,1-1.486,1.486A1.487,1.487,0,0,1,165.893,263.074Z" transform="translate(91.018 -263.074)" fill="#fff"/>
            <circle id="Ellipse_129" data-name="Ellipse 129" cx="2.299" cy="2.299" r="2.299" transform="translate(339.616 80.914)" fill="#fff"/>
            <path id="Path_6760" data-name="Path 6760" d="M74.968,304.786a.355.355,0,0,1,.354-.244.35.35,0,0,1,.329.28,8.458,8.458,0,0,0,3.728,5.413.361.361,0,0,1,.159.293.351.351,0,0,1-.156.293,8.667,8.667,0,0,0-3.629,5.024.348.348,0,0,1-.674,0,8.658,8.658,0,0,0-3.706-5.041.353.353,0,0,1-.153-.282.357.357,0,0,1,.14-.293A10.763,10.763,0,0,0,74.968,304.786Z" transform="translate(-71.218 -190.881)" fill="#fff"/>
            <path id="Path_6761" data-name="Path 6761" d="M110.027,327.489a1.121,1.121,0,1,1-1.121,1.121A1.121,1.121,0,0,1,110.027,327.489Z" transform="translate(-5.606 -150.932)" fill="#fff"/>
            <path id="Path_6762" data-name="Path 6762" d="M73.679,338.744a1.487,1.487,0,1,1-1.486,1.486A1.487,1.487,0,0,1,73.679,338.744Z" transform="translate(-69.52 -131.338)" fill="#fff"/>
            <path id="Path_6763" data-name="Path 6763" d="M83.509,308.128a1.734,1.734,0,1,1-1.732,1.735A1.735,1.735,0,0,1,83.509,308.128Z" transform="translate(-52.835 -184.638)" fill="#fff"/>
            <path id="Path_6764" data-name="Path 6764" d="M204.977,293.62a.265.265,0,0,1,.513.025,6.373,6.373,0,0,0,2.812,4.084.267.267,0,0,1,0,.441,6.538,6.538,0,0,0-2.738,3.788.262.262,0,0,1-.507,0,6.534,6.534,0,0,0-2.8-3.8.267.267,0,0,1-.008-.433A8.127,8.127,0,0,0,204.977,293.62Z" transform="translate(156.722 -210.221)" fill="#fff"/>
          </g>
          <g id="Group_2799" data-name="Group 2799" transform="translate(172.868)">
            <path id="Path_6765" data-name="Path 6765" d="M157.027,279.173a1.121,1.121,0,1,1-1.121,1.121A1.121,1.121,0,0,1,157.027,279.173Z" transform="translate(-96.65 -234.148)" fill="#fff"/>
            <path id="Path_6766" data-name="Path 6766" d="M190.217,354.776a1.734,1.734,0,1,1-1.732,1.732A1.733,1.733,0,0,1,190.217,354.776Z" transform="translate(-39.932 -102.528)" fill="#fff"/>
            <path id="Path_6767" data-name="Path 6767" d="M211.592,346.275a.266.266,0,0,1,.266-.186.271.271,0,0,1,.249.211,6.36,6.36,0,0,0,2.809,4.081.274.274,0,0,1,.121.222.268.268,0,0,1-.118.222,6.542,6.542,0,0,0-2.738,3.788.258.258,0,0,1-.252.195.264.264,0,0,1-.255-.2,6.536,6.536,0,0,0-2.8-3.8.278.278,0,0,1-.115-.217.267.267,0,0,1,.107-.219A8.131,8.131,0,0,0,211.592,346.275Z" transform="translate(-4.629 -117.653)" fill="#fff"/>
            <path id="Path_6768" data-name="Path 6768" d="M214.738,316.181a1.487,1.487,0,1,1-1.488,1.486A1.487,1.487,0,0,1,214.738,316.181Z" transform="translate(3.182 -169.719)" fill="#fff"/>
            <path id="Path_6769" data-name="Path 6769" d="M201.212,273.3a.351.351,0,0,1,.68.033,8.456,8.456,0,0,0,3.728,5.416.349.349,0,0,1,.159.291.356.356,0,0,1-.156.3,8.67,8.67,0,0,0-3.629,5.021.348.348,0,0,1-.674,0,8.649,8.649,0,0,0-3.706-5.041.356.356,0,0,1-.014-.576A10.8,10.8,0,0,0,201.212,273.3Z" transform="translate(-24.307 -244.794)" fill="#fff"/>
            <circle id="Ellipse_130" data-name="Ellipse 130" cx="1.121" cy="1.121" r="1.121" transform="translate(187.003 206.651)" fill="#fff"/>
            <path id="Path_6770" data-name="Path 6770" d="M187.689,307.167a1.734,1.734,0,1,1-1.735,1.735A1.735,1.735,0,0,1,187.689,307.167Z" transform="translate(-44.338 -185.412)" fill="#fff"/>
            <path id="Path_6771" data-name="Path 6771" d="M249.048,291.7a.271.271,0,0,1,.269-.186.268.268,0,0,1,.247.211,6.366,6.366,0,0,0,2.81,4.084.264.264,0,0,1,0,.441,6.533,6.533,0,0,0-2.735,3.788.263.263,0,0,1-.51,0,6.54,6.54,0,0,0-2.793-3.8.265.265,0,0,1-.011-.433A8.11,8.11,0,0,0,249.048,291.7Z" transform="translate(60.579 -212.663)" fill="#fff"/>
            <path id="Path_6772" data-name="Path 6772" d="M274.752,324.75a1.486,1.486,0,1,1-1.486,1.486A1.487,1.487,0,0,1,274.752,324.75Z" transform="translate(107.666 -154.801)" fill="#fff"/>
            <path id="Path_6773" data-name="Path 6773" d="M269.663,331.713a2.3,2.3,0,1,1-2.3,2.3A2.3,2.3,0,0,1,269.663,331.713Z" transform="translate(97.394 -142.679)" fill="#fff"/>
            <path id="Path_6774" data-name="Path 6774" d="M258.4,351.626a.353.353,0,0,1,.682.033,8.434,8.434,0,0,0,3.728,5.413.355.355,0,0,1,0,.587,8.672,8.672,0,0,0-3.629,5.024.352.352,0,0,1-.34.26.346.346,0,0,1-.334-.263,8.676,8.676,0,0,0-3.706-5.038.358.358,0,0,1-.156-.285.362.362,0,0,1,.143-.29A10.775,10.775,0,0,0,258.4,351.626Z" transform="translate(75.253 -108.442)" fill="#fff"/>
            <path id="Path_6775" data-name="Path 6775" d="M176.64,272.649a1.121,1.121,0,1,1-1.121,1.121A1.121,1.121,0,0,1,176.64,272.649Z" transform="translate(-62.505 -245.506)" fill="#fff"/>
            <path id="Path_6776" data-name="Path 6776" d="M245.642,302.389a1.732,1.732,0,1,1-1.732,1.732A1.732,1.732,0,0,1,245.642,302.389Z" transform="translate(56.559 -193.73)" fill="#fff"/>
            <path id="Path_6777" data-name="Path 6777" d="M211.592,266.076a.261.261,0,0,1,.266-.184.269.269,0,0,1,.249.208,6.359,6.359,0,0,0,2.809,4.084.274.274,0,0,1,.121.222.263.263,0,0,1-.118.219,6.551,6.551,0,0,0-2.738,3.788.258.258,0,0,1-.252.2.264.264,0,0,1-.255-.2,6.533,6.533,0,0,0-2.8-3.8.272.272,0,0,1-.115-.214.268.268,0,0,1,.107-.219A8.126,8.126,0,0,0,211.592,266.076Z" transform="translate(-4.629 -257.269)" fill="#fff"/>
            <path id="Path_6778" data-name="Path 6778" d="M240.84,262.746a1.486,1.486,0,1,1-1.486,1.486A1.485,1.485,0,0,1,240.84,262.746Z" transform="translate(48.628 -262.746)" fill="#fff"/>
            <circle id="Ellipse_131" data-name="Ellipse 131" cx="2.299" cy="2.299" r="2.299" transform="translate(372.172 80.913)" fill="#fff"/>
            <path id="Path_6779" data-name="Path 6779" d="M149.915,304.46a.357.357,0,0,1,.354-.247.353.353,0,0,1,.329.28,8.446,8.446,0,0,0,3.728,5.416.356.356,0,0,1,.159.291.363.363,0,0,1-.156.3,8.67,8.67,0,0,0-3.629,5.021.348.348,0,0,1-.674,0,8.649,8.649,0,0,0-3.706-5.041.356.356,0,0,1-.014-.576A10.775,10.775,0,0,0,149.915,304.46Z" transform="translate(-113.608 -190.555)" fill="#fff"/>
            <path id="Path_6780" data-name="Path 6780" d="M184.974,327.161a1.12,1.12,0,1,1-1.121,1.121A1.121,1.121,0,0,1,184.974,327.161Z" transform="translate(-47.996 -150.604)" fill="#fff"/>
            <path id="Path_6781" data-name="Path 6781" d="M148.626,338.416a1.486,1.486,0,1,1-1.486,1.486A1.487,1.487,0,0,1,148.626,338.416Z" transform="translate(-111.911 -131.01)" fill="#fff"/>
            <path id="Path_6782" data-name="Path 6782" d="M158.456,307.8a1.734,1.734,0,1,1-1.732,1.732A1.735,1.735,0,0,1,158.456,307.8Z" transform="translate(-95.226 -184.31)" fill="#fff"/>
            <path id="Path_6783" data-name="Path 6783" d="M154.079,349.516a.357.357,0,0,1,.354-.247.353.353,0,0,1,.329.28,8.456,8.456,0,0,0,3.728,5.416.36.36,0,0,1,.159.293.355.355,0,0,1-.156.293,8.67,8.67,0,0,0-3.629,5.021.348.348,0,0,1-.674,0,8.658,8.658,0,0,0-3.706-5.041.356.356,0,0,1-.014-.576A10.763,10.763,0,0,0,154.079,349.516Z" transform="translate(-106.359 -112.116)" fill="#fff"/>
            <path id="Path_6784" data-name="Path 6784" d="M279.924,293.292a.265.265,0,0,1,.513.025,6.38,6.38,0,0,0,2.812,4.084.263.263,0,0,1,.118.219.273.273,0,0,1-.115.222,6.538,6.538,0,0,0-2.738,3.788.261.261,0,0,1-.507,0,6.536,6.536,0,0,0-2.8-3.8.269.269,0,0,1-.008-.436A8.137,8.137,0,0,0,279.924,293.292Z" transform="translate(114.332 -209.893)" fill="#fff"/>
            <path id="Path_6785" data-name="Path 6785" d="M137.116,336.734a.269.269,0,0,1,.269-.184.263.263,0,0,1,.247.211,6.365,6.365,0,0,0,2.812,4.081.268.268,0,0,1,0,.444,6.519,6.519,0,0,0-2.735,3.785.261.261,0,0,1-.255.2.264.264,0,0,1-.255-.2,6.517,6.517,0,0,0-2.793-3.8.264.264,0,0,1-.118-.214.275.275,0,0,1,.107-.219A8.111,8.111,0,0,0,137.116,336.734Z" transform="translate(-134.287 -134.258)" fill="#fff"/>
          </g>
        </g>
        <g id="stars-6" data-name="stars" transform="translate(393.255 564.651)">
          <g id="Group_2800" data-name="Group 2800" transform="translate(0 0.902)">
            <path id="Path_6786" data-name="Path 6786" d="M225.553,279.337a1.121,1.121,0,1,1-1.118,1.121A1.121,1.121,0,0,1,225.553,279.337Z" transform="translate(-197.733 -234.312)" fill="#fff"/>
            <path id="Path_6787" data-name="Path 6787" d="M258.748,354.94a1.734,1.734,0,1,1-1.735,1.732A1.732,1.732,0,0,1,258.748,354.94Z" transform="translate(-141.017 -102.692)" fill="#fff"/>
            <path id="Path_6788" data-name="Path 6788" d="M280.122,346.439a.265.265,0,0,1,.512.025,6.359,6.359,0,0,0,2.812,4.081.275.275,0,0,1,.118.222.268.268,0,0,1-.118.222,6.544,6.544,0,0,0-2.735,3.788.264.264,0,0,1-.51,0,6.521,6.521,0,0,0-2.793-3.8.272.272,0,0,1-.118-.214.276.276,0,0,1,.107-.222A8.124,8.124,0,0,0,280.122,346.439Z" transform="translate(-105.714 -117.817)" fill="#fff"/>
            <path id="Path_6789" data-name="Path 6789" d="M283.265,316.345a1.487,1.487,0,1,1-1.486,1.486A1.487,1.487,0,0,1,283.265,316.345Z" transform="translate(-97.901 -169.883)" fill="#fff"/>
            <path id="Path_6790" data-name="Path 6790" d="M269.74,273.469a.353.353,0,0,1,.682.033,8.447,8.447,0,0,0,3.728,5.416.355.355,0,0,1,0,.587,8.646,8.646,0,0,0-3.629,5.021.348.348,0,0,1-.674,0,8.681,8.681,0,0,0-3.706-5.041.35.35,0,0,1-.156-.285.366.366,0,0,1,.143-.291A10.763,10.763,0,0,0,269.74,273.469Z" transform="translate(-125.392 -244.958)" fill="#fff"/>
            <circle id="Ellipse_132" data-name="Ellipse 132" cx="1.121" cy="1.121" r="1.121" transform="translate(154.448 206.651)" fill="#fff"/>
            <path id="Path_6791" data-name="Path 6791" d="M256.215,307.332a1.732,1.732,0,1,1-1.732,1.732A1.732,1.732,0,0,1,256.215,307.332Z" transform="translate(-145.421 -185.574)" fill="#fff"/>
            <path id="Path_6792" data-name="Path 6792" d="M317.577,291.863a.266.266,0,0,1,.513.025,6.373,6.373,0,0,0,2.812,4.084.265.265,0,0,1,0,.441,6.545,6.545,0,0,0-2.735,3.788.262.262,0,0,1-.507,0,6.533,6.533,0,0,0-2.8-3.8.267.267,0,0,1-.008-.433A8.145,8.145,0,0,0,317.577,291.863Z" transform="translate(-40.504 -212.825)" fill="#fff"/>
            <path id="Path_6793" data-name="Path 6793" d="M343.282,324.914a1.486,1.486,0,1,1-1.488,1.486A1.487,1.487,0,0,1,343.282,324.914Z" transform="translate(6.581 -154.965)" fill="#fff"/>
            <path id="Path_6794" data-name="Path 6794" d="M338.194,331.877a2.3,2.3,0,1,1-2.3,2.3A2.3,2.3,0,0,1,338.194,331.877Z" transform="translate(-3.69 -142.843)" fill="#fff"/>
            <path id="Path_6795" data-name="Path 6795" d="M326.927,351.79a.353.353,0,0,1,.682.033,8.444,8.444,0,0,0,3.728,5.413.354.354,0,0,1,0,.589,8.67,8.67,0,0,0-3.629,5.021.348.348,0,0,1-.674,0,8.652,8.652,0,0,0-3.706-5.038.359.359,0,0,1-.154-.285.352.352,0,0,1,.14-.29A10.776,10.776,0,0,0,326.927,351.79Z" transform="translate(-25.83 -108.606)" fill="#fff"/>
            <path id="Path_6796" data-name="Path 6796" d="M245.169,272.813a1.121,1.121,0,1,1-1.121,1.121A1.124,1.124,0,0,1,245.169,272.813Z" transform="translate(-163.588 -245.67)" fill="#fff"/>
            <path id="Path_6797" data-name="Path 6797" d="M314.17,302.553a1.734,1.734,0,1,1-1.732,1.732A1.735,1.735,0,0,1,314.17,302.553Z" transform="translate(-44.526 -193.894)" fill="#fff"/>
            <path id="Path_6798" data-name="Path 6798" d="M280.122,266.24a.265.265,0,0,1,.512.027,6.366,6.366,0,0,0,2.812,4.081.268.268,0,0,1,0,.444,6.531,6.531,0,0,0-2.735,3.785.261.261,0,0,1-.255.2.264.264,0,0,1-.255-.2,6.518,6.518,0,0,0-2.793-3.8.264.264,0,0,1-.118-.214.275.275,0,0,1,.107-.219A8.131,8.131,0,0,0,280.122,266.24Z" transform="translate(-105.714 -257.433)" fill="#fff"/>
            <path id="Path_6799" data-name="Path 6799" d="M309.368,262.91a1.486,1.486,0,1,1-1.486,1.486A1.487,1.487,0,0,1,309.368,262.91Z" transform="translate(-52.457 -262.91)" fill="#fff"/>
            <circle id="Ellipse_133" data-name="Ellipse 133" cx="2.299" cy="2.299" r="2.299" transform="translate(339.617 80.914)" fill="#fff"/>
            <path id="Path_6800" data-name="Path 6800" d="M218.445,304.622a.352.352,0,0,1,.68.033,8.456,8.456,0,0,0,3.728,5.416.352.352,0,0,1,0,.587,8.67,8.67,0,0,0-3.629,5.021.341.341,0,0,1-.337.26.349.349,0,0,1-.337-.26,8.658,8.658,0,0,0-3.706-5.041.354.354,0,0,1-.011-.576A10.8,10.8,0,0,0,218.445,304.622Z" transform="translate(-214.693 -190.717)" fill="#fff"/>
            <path id="Path_6801" data-name="Path 6801" d="M253.5,327.325a1.121,1.121,0,1,1-1.118,1.121A1.121,1.121,0,0,1,253.5,327.325Z" transform="translate(-149.079 -150.768)" fill="#fff"/>
            <path id="Path_6802" data-name="Path 6802" d="M217.156,338.58a1.487,1.487,0,1,1-1.488,1.486A1.487,1.487,0,0,1,217.156,338.58Z" transform="translate(-212.995 -131.174)" fill="#fff"/>
            <path id="Path_6803" data-name="Path 6803" d="M226.987,307.964a1.734,1.734,0,1,1-1.735,1.732A1.732,1.732,0,0,1,226.987,307.964Z" transform="translate(-196.31 -184.474)" fill="#fff"/>
            <path id="Path_6804" data-name="Path 6804" d="M348.452,293.456a.271.271,0,0,1,.269-.186.265.265,0,0,1,.247.211,6.366,6.366,0,0,0,2.81,4.084.273.273,0,0,1,.121.219.265.265,0,0,1-.118.222,6.533,6.533,0,0,0-2.735,3.788.267.267,0,0,1-.255.2.264.264,0,0,1-.255-.2,6.543,6.543,0,0,0-2.793-3.8.265.265,0,0,1-.011-.433A8.128,8.128,0,0,0,348.452,293.456Z" transform="translate(13.247 -210.057)" fill="#fff"/>
          </g>
          <g id="Group_2801" data-name="Group 2801" transform="translate(172.87)">
            <path id="Path_6805" data-name="Path 6805" d="M300.5,279.009a1.121,1.121,0,1,1-1.121,1.121A1.121,1.121,0,0,1,300.5,279.009Z" transform="translate(-240.127 -233.981)" fill="#fff"/>
            <path id="Path_6806" data-name="Path 6806" d="M333.7,354.612a1.732,1.732,0,1,1-1.735,1.732A1.732,1.732,0,0,1,333.7,354.612Z" transform="translate(-183.41 -102.361)" fill="#fff"/>
            <path id="Path_6807" data-name="Path 6807" d="M355.067,346.108a.269.269,0,0,1,.269-.184.262.262,0,0,1,.247.211,6.361,6.361,0,0,0,2.809,4.081.267.267,0,0,1,.121.222.272.272,0,0,1-.118.222,6.527,6.527,0,0,0-2.735,3.785.261.261,0,0,1-.255.2.264.264,0,0,1-.255-.2,6.52,6.52,0,0,0-2.793-3.8.268.268,0,0,1-.011-.436A8.11,8.11,0,0,0,355.067,346.108Z" transform="translate(-148.107 -117.487)" fill="#fff"/>
            <path id="Path_6808" data-name="Path 6808" d="M358.212,316.017a1.486,1.486,0,1,1-1.486,1.486A1.487,1.487,0,0,1,358.212,316.017Z" transform="translate(-140.294 -169.553)" fill="#fff"/>
            <path id="Path_6809" data-name="Path 6809" d="M344.687,273.141a.354.354,0,0,1,.354-.247.358.358,0,0,1,.329.28,8.425,8.425,0,0,0,3.728,5.413.356.356,0,0,1,0,.589,8.67,8.67,0,0,0-3.629,5.021.346.346,0,0,1-.337.26.343.343,0,0,1-.334-.263,8.669,8.669,0,0,0-3.708-5.038.358.358,0,0,1-.154-.285.355.355,0,0,1,.143-.291A10.775,10.775,0,0,0,344.687,273.141Z" transform="translate(-167.785 -244.627)" fill="#fff"/>
            <circle id="Ellipse_134" data-name="Ellipse 134" cx="1.121" cy="1.121" r="1.121" transform="translate(187.002 206.653)" fill="#fff"/>
            <path id="Path_6810" data-name="Path 6810" d="M331.164,307a1.734,1.734,0,1,1-1.735,1.735A1.735,1.735,0,0,1,331.164,307Z" transform="translate(-187.816 -185.245)" fill="#fff"/>
            <path id="Path_6811" data-name="Path 6811" d="M392.524,291.536a.265.265,0,0,1,.513.025,6.37,6.37,0,0,0,2.812,4.084.265.265,0,0,1,0,.441,6.545,6.545,0,0,0-2.735,3.788.264.264,0,0,1-.255.2.258.258,0,0,1-.252-.2,6.536,6.536,0,0,0-2.8-3.8.269.269,0,0,1-.011-.433A8.131,8.131,0,0,0,392.524,291.536Z" transform="translate(-82.897 -212.496)" fill="#fff"/>
            <path id="Path_6812" data-name="Path 6812" d="M418.229,324.585a1.487,1.487,0,1,1-1.488,1.488A1.487,1.487,0,0,1,418.229,324.585Z" transform="translate(-35.812 -154.636)" fill="#fff"/>
            <path id="Path_6813" data-name="Path 6813" d="M413.141,331.549a2.3,2.3,0,1,1-2.3,2.3A2.3,2.3,0,0,1,413.141,331.549Z" transform="translate(-46.083 -142.512)" fill="#fff"/>
            <path id="Path_6814" data-name="Path 6814" d="M401.874,351.462a.353.353,0,0,1,.682.033,8.434,8.434,0,0,0,3.728,5.413.352.352,0,0,1,0,.587,8.668,8.668,0,0,0-3.629,5.024.348.348,0,0,1-.674,0,8.658,8.658,0,0,0-3.706-5.041.353.353,0,0,1-.153-.282.361.361,0,0,1,.14-.293A10.756,10.756,0,0,0,401.874,351.462Z" transform="translate(-68.223 -108.276)" fill="#fff"/>
            <path id="Path_6815" data-name="Path 6815" d="M320.116,272.485a1.121,1.121,0,1,1-1.121,1.121A1.12,1.12,0,0,1,320.116,272.485Z" transform="translate(-205.981 -245.339)" fill="#fff"/>
            <path id="Path_6816" data-name="Path 6816" d="M389.117,302.224a1.734,1.734,0,1,1-1.732,1.735A1.737,1.737,0,0,1,389.117,302.224Z" transform="translate(-86.918 -193.565)" fill="#fff"/>
            <path id="Path_6817" data-name="Path 6817" d="M355.067,265.914a.272.272,0,0,1,.269-.186.269.269,0,0,1,.247.211,6.366,6.366,0,0,0,2.809,4.084.264.264,0,0,1,0,.441,6.534,6.534,0,0,0-2.735,3.788.263.263,0,0,1-.51,0,6.517,6.517,0,0,0-2.793-3.8.265.265,0,0,1-.011-.433A8.11,8.11,0,0,0,355.067,265.914Z" transform="translate(-148.107 -257.104)" fill="#fff"/>
            <path id="Path_6818" data-name="Path 6818" d="M384.315,262.581a1.487,1.487,0,1,1-1.485,1.488A1.487,1.487,0,0,1,384.315,262.581Z" transform="translate(-94.85 -262.581)" fill="#fff"/>
            <circle id="Ellipse_135" data-name="Ellipse 135" cx="2.299" cy="2.299" r="2.299" transform="translate(372.171 80.916)" fill="#fff"/>
            <path id="Path_6819" data-name="Path 6819" d="M293.392,304.3a.351.351,0,0,1,.68.033,8.445,8.445,0,0,0,3.728,5.413.353.353,0,0,1,.159.293.359.359,0,0,1-.156.3,8.67,8.67,0,0,0-3.629,5.021.348.348,0,0,1-.674,0,8.652,8.652,0,0,0-3.706-5.038.358.358,0,0,1-.154-.285.347.347,0,0,1,.142-.291A10.809,10.809,0,0,0,293.392,304.3Z" transform="translate(-257.086 -190.388)" fill="#fff"/>
            <path id="Path_6820" data-name="Path 6820" d="M328.449,327a1.12,1.12,0,1,1-1.121,1.118A1.12,1.12,0,0,1,328.449,327Z" transform="translate(-191.474 -150.437)" fill="#fff"/>
            <path id="Path_6821" data-name="Path 6821" d="M292.1,338.252a1.486,1.486,0,1,1-1.486,1.486A1.487,1.487,0,0,1,292.1,338.252Z" transform="translate(-255.388 -130.843)" fill="#fff"/>
            <path id="Path_6822" data-name="Path 6822" d="M301.934,307.636a1.734,1.734,0,1,1-1.735,1.732A1.732,1.732,0,0,1,301.934,307.636Z" transform="translate(-238.703 -184.143)" fill="#fff"/>
            <path id="Path_6823" data-name="Path 6823" d="M297.556,349.352a.351.351,0,0,1,.68.033,8.456,8.456,0,0,0,3.728,5.416.345.345,0,0,1,.159.291.356.356,0,0,1-.156.3,8.67,8.67,0,0,0-3.629,5.021.348.348,0,0,1-.674,0,8.651,8.651,0,0,0-3.706-5.038.359.359,0,0,1-.153-.285.347.347,0,0,1,.143-.291A10.809,10.809,0,0,0,297.556,349.352Z" transform="translate(-249.837 -111.949)" fill="#fff"/>
            <path id="Path_6824" data-name="Path 6824" d="M423.4,293.128a.266.266,0,0,1,.266-.186.271.271,0,0,1,.25.211,6.354,6.354,0,0,0,2.809,4.081.278.278,0,0,1,.121.222.269.269,0,0,1-.118.222,6.542,6.542,0,0,0-2.738,3.788.258.258,0,0,1-.252.195.261.261,0,0,1-.255-.2,6.536,6.536,0,0,0-2.8-3.8.278.278,0,0,1-.115-.217.268.268,0,0,1,.107-.219A8.119,8.119,0,0,0,423.4,293.128Z" transform="translate(-29.146 -209.726)" fill="#fff"/>
            <path id="Path_6825" data-name="Path 6825" d="M280.592,336.57a.266.266,0,0,1,.513.025,6.374,6.374,0,0,0,2.812,4.084.266.266,0,0,1,0,.441,6.545,6.545,0,0,0-2.735,3.788.261.261,0,0,1-.255.2.258.258,0,0,1-.252-.2,6.534,6.534,0,0,0-2.8-3.8.267.267,0,0,1-.008-.433A8.145,8.145,0,0,0,280.592,336.57Z" transform="translate(-277.763 -134.092)" fill="#fff"/>
          </g>
        </g>
      </g>
      <ellipse id="Ellipse_136" data-name="Ellipse 136" cx="322.776" cy="39.881" rx="322.776" ry="39.881" transform="translate(304.118 686.41)" fill="#191a26"/>
      <g id="Group_2804" data-name="Group 2804" transform="translate(378.77 220.64)">
        <path id="Path_6826" data-name="Path 6826" d="M151.49,282.015,383.981,142.83a40.535,40.535,0,0,1,41.648,0L658.121,282.015V508.871l-506.631-25.4Z" transform="translate(-151.49 -137.072)" fill="#3c4898"/>
        <rect id="Rectangle_2713" data-name="Rectangle 2713" width="419.412" height="362.454" transform="translate(43.61 44.431)" fill="#fff"/>
        <g id="Group_2803" data-name="Group 2803" transform="translate(0 144.319)">
          <path id="Path_6827" data-name="Path 6827" d="M658.12,189.725V493.031H151.49V189.725L404.805,341.381Z" transform="translate(-151.49 -189.725)" fill="#565ba5"/>
          <path id="Path_6828" data-name="Path 6828" d="M151.49,410.395,383.54,244.028a36.5,36.5,0,0,1,42.531,0l232.05,166.366Z" transform="translate(-151.49 -107.087)" fill="#3c4898"/>
        </g>
      </g>
      <g id="Group_2809" data-name="Group 2809" transform="translate(263.758 96.047)">
        <g id="Group_2806" data-name="Group 2806">
          <g id="Group_2805" data-name="Group 2805">
            <path id="Path_6829" data-name="Path 6829" d="M131.834,129.335l94.906,15.022-62.461-43.986-3.421,13.743-23.194,3.836Z" transform="translate(-70.698 -76.373)" fill="url(#linear-gradient)"/>
            <path id="Path_6830" data-name="Path 6830" d="M265.571,146.339l-78.526-42.018-77.515-5.088Z" transform="translate(-109.529 -78.355)" fill="#fff"/>
            <path id="Path_6831" data-name="Path 6831" d="M143.671,115.613,206.132,159.6,158.3,91.616Z" transform="translate(-50.09 -91.616)" fill="#fff"/>
          </g>
        </g>
        <g id="Group_2808" data-name="Group 2808" transform="translate(558.31 12.612)">
          <g id="Group_2807" data-name="Group 2807">
            <path id="Path_6832" data-name="Path 6832" d="M457.4,155.553,313.223,172.147l97.067-62.377,4.282,20.956L449.326,138Z" transform="translate(-313.223 -72.622)" fill="url(#linear-gradient-2)"/>
            <path id="Path_6833" data-name="Path 6833" d="M313.223,171.333l121.183-58.379L551.7,110.237Z" transform="translate(-313.223 -71.808)" fill="#fff"/>
            <path id="Path_6834" data-name="Path 6834" d="M410.289,133.365l-97.067,62.377,76.531-99.525Z" transform="translate(-313.223 -96.217)" fill="#fff"/>
          </g>
        </g>
      </g>
      <g id="Group_2810" data-name="Group 2810" transform="translate(550.503 295.348)">
        <path id="Path_6835" data-name="Path 6835" d="M348.995,313.784a.618.618,0,0,1-.576.2q-4.675-.016-9.352-.033c-.038,0-.077-.036-.175-.082,5.353-8.881,7.694-18.644,8.379-28.876a56,56,0,0,0-.7-14.659c-.535.715-.992,1.384-1.5,2.006a21.841,21.841,0,0,1-13.653,7.694c-5.057.883-9.966.123-14.837-1.3a91.892,91.892,0,0,0-19.167-3.44,71.264,71.264,0,0,0-32.321,4.865,75.365,75.365,0,0,0-16.739,9.615c-2.82,2.1-5.682,4.147-8.527,6.214a1.316,1.316,0,0,1-.669.269l5.929-18.605c-.343-.041-.425.2-.559.34q-5.394,5.707-10.788,11.41a1.256,1.256,0,0,0-.386,1.258,57.64,57.64,0,0,0,9.478,22.054c.266.378.532.759.795,1.135-.2.17-.37.1-.529.1-3.092.014-6.186.005-9.281.041a1.051,1.051,0,0,1-1.052-.619,67.05,67.05,0,0,1-6.559-15.012c-.06-.2-.126-.4-.214-.691-1.277,1.349-2.516,2.656-3.752,3.966-1.291,1.368-2.571,2.744-3.87,4.1-.14.145-.208.469-.537.337.027-3.234.11-6.474-.022-9.7-.1-2.615-.079-5.227-.077-7.839,0-3.684.2-7.357.526-11.029a83.57,83.57,0,0,1,2.349-13.765,65.333,65.333,0,0,1,8.006-18.526,72.7,72.7,0,0,1,8.807-11.194,71.863,71.863,0,0,1,17.61-13.576c1.7-.94,3.456-1.806,5.252-2.574.746-.315.759-.34.452-1.039a26.725,26.725,0,0,1-2.132-8.4c-.126-1.373-.025-2.757-.041-4.136-.011-.847-.016-.817-.885-.9-2.034-.195-4.087-.159-6.112-.444a11.437,11.437,0,0,1-6.121-2.845,11.675,11.675,0,0,1-3.952-7.458,3.287,3.287,0,0,1,.093-1.825c.2-3.179.389-6.359.606-9.538a11.781,11.781,0,0,1,9.777-10.35,29.649,29.649,0,0,1,5.337.055c1.853.079,3.7.282,5.553.356a11.726,11.726,0,0,1,8.089,3.55c.23-.055.288-.274.406-.439q3.507-4.893,7.006-9.8c.252-.356.419-.436.822-.192q3.264,1.961,6.562,3.859c.417.241.493.433.288.877a34.631,34.631,0,0,0-2.319,6.1,10.349,10.349,0,0,1-.392,2.308c-.066.545-.082,1.088-.1,1.636-.019.532.178.8.74.784a23.418,23.418,0,0,1,5.723.713,31.126,31.126,0,0,1,9.678,3.728,25.608,25.608,0,0,1,9.02,9.44,25.068,25.068,0,0,1,3.218,10.347,25.7,25.7,0,0,1-1.434,11.167c-.3.809-.3.817.532,1.11a67.014,67.014,0,0,1,21.048,12.1,70.169,70.169,0,0,1,16.369,19.888,64,64,0,0,1,8.116,26.4,41.577,41.577,0,0,1,.178,4.624c-.041,1.916-.014,3.843-.167,5.767-.195,2.442-.408,4.876-.746,7.3a73.1,73.1,0,0,1-2.171,10.254,68.135,68.135,0,0,1-3.262,8.982A13.941,13.941,0,0,1,348.995,313.784Z" transform="translate(-207.914 -164.329)" fill="#1e1e1d"/>
        <path id="Path_6836" data-name="Path 6836" d="M307.521,306.939c.707-1.653,1.458-3.286,2.11-4.958a72.3,72.3,0,0,0,3.914-14.426,84.318,84.318,0,0,0,1.1-18.175,60.743,60.743,0,0,0-4.15-19.011,68.922,68.922,0,0,0-12.14-20.283A68.129,68.129,0,0,0,268.7,209.734c-.447-.154-.567-.282-.373-.773a23.366,23.366,0,0,0,1.6-11.52c-1.4-11.114-7.406-18.644-18.046-22.319a28.273,28.273,0,0,0-9.752-1.741c-.471.008-.554-.227-.567-.608a11.157,11.157,0,0,1,.677-4.311c1.444-.038,2.9-.027,4.339-.132a54.543,54.543,0,0,1,6.628.1,74.939,74.939,0,0,1,8.491.932,81.963,81.963,0,0,1,67.646,67.9,87.1,87.1,0,0,1,.946,9.708,77.812,77.812,0,0,1-.362,11.748,80.908,80.908,0,0,1-7.206,26.107,81.976,81.976,0,0,1-14.779,21.722C307.8,306.684,307.658,306.807,307.521,306.939Z" transform="translate(-166.44 -157.483)" fill="url(#linear-gradient-3)"/>
        <path id="Path_6837" data-name="Path 6837" d="M247.812,173.995a11.57,11.57,0,0,0,2.4,7.436,11.214,11.214,0,0,0,8.069,4.534c2.034.189,4.076.31,6.118.406.526.025.617.2.595.666a28.661,28.661,0,0,0,1.127,10.133,23.472,23.472,0,0,0,1.22,3.18c.175.365.132.5-.247.663a66.958,66.958,0,0,0-15.544,9.251c-12.26,9.788-20.831,22.029-24.7,37.373a85.145,85.145,0,0,0-2.163,13.03c-.447,4.838-.562,9.684-.559,14.535q0,6.71-.022,13.42c0,.211-.03.422-.047.633-.016-2.782-.066-5.561-.03-8.341a6.011,6.011,0,0,0-.718-2.982,79.984,79.984,0,0,1-7.7-22.048,81.825,81.825,0,0,1,20.16-71.1A83.621,83.621,0,0,1,247.316,174.4C247.488,174.272,247.647,174.129,247.812,173.995Z" transform="translate(-214.145 -147.5)" fill="url(#linear-gradient-3)"/>
        <path id="Path_6838" data-name="Path 6838" d="M248.616,216.712a5.944,5.944,0,1,1,5.915,5.923A5.94,5.94,0,0,1,248.616,216.712Z" transform="translate(-154.133 -83.488)" fill="#1e1e1d"/>
        <path id="Path_6839" data-name="Path 6839" d="M247.012,216.728a5.936,5.936,0,0,1-11.871-.005,5.936,5.936,0,1,1,11.871.005Z" transform="translate(-177.592 -83.488)" fill="#1e1e1d"/>
        <path id="Path_6840" data-name="Path 6840" d="M249.372,237.011l10.07-31.578-.143-.079-38.252,40.56a79.336,79.336,0,0,1,3.185-20.425,57.9,57.9,0,0,1,13.348-22.722,63.1,63.1,0,0,1,21.407-15.1,2.717,2.717,0,0,1,3.358.389,27.943,27.943,0,0,0,13,5.953c.452.09.54.189.4.63a8.57,8.57,0,0,0,1.6,8.365.834.834,0,0,1,.208.88,8.381,8.381,0,0,0,1.491,8.058,36.062,36.062,0,0,0,3.909,4.624,8.5,8.5,0,0,0,11.339.263,3.62,3.62,0,0,1,3.607-.9,8.982,8.982,0,0,0,10.788-8.162,9.36,9.36,0,0,0-2.3-6.9c-3.215-3.914-6.395-7.861-9.607-11.778-.367-.45-.461-.718.09-1.1a5.7,5.7,0,0,0,1.343-1.272c.5-.663,1.006-.619,1.708-.389a60.25,60.25,0,0,1,31.227,23.265,20.951,20.951,0,0,1,3.9,10.054,12.19,12.19,0,0,1-9.218,13.381,19.878,19.878,0,0,1-11.041-.334,116.9,116.9,0,0,0-15.695-3.473,92.382,92.382,0,0,0-15.146-.94,77.01,77.01,0,0,0-33.982,8.461C249.81,236.817,249.643,236.885,249.372,237.011Z" transform="translate(-202.129 -126.31)" fill="#ef5719"/>
        <path id="Path_6841" data-name="Path 6841" d="M243.778,171.65a8.341,8.341,0,0,0,6.145,4.459c1.19.192,2.426.074,3.624.233,4.544.6,8.845,1.856,12.252,5.15a17.007,17.007,0,0,1-.447,25.126c-.31.28-.458.241-.718-.069a28.02,28.02,0,0,0-3.4-3.933,9.109,9.109,0,0,0-14.949,5.89c-.06.491-.175.54-.595.332a16.517,16.517,0,0,1-9.555-12.658c-.743-4.542.154-8.881,1.683-13.129a56.916,56.916,0,0,1,5.715-11.128A2.573,2.573,0,0,1,243.778,171.65Z" transform="translate(-176.318 -151.583)" fill="#ef5719"/>
        <path id="Path_6842" data-name="Path 6842" d="M264.568,209.41a1.914,1.914,0,0,1-1.17,1.828,1.951,1.951,0,0,1-2.212-.518c-.526-.611-1.036-1.242-1.518-1.888-.258-.343-.425-.373-.776-.08-1.957,1.625-3.933,3.226-5.912,4.824a1.53,1.53,0,0,1-2.467-.227q-1.381-1.636-2.711-3.311a1.532,1.532,0,0,1,.274-2.365c1.968-1.609,3.93-3.226,5.915-4.816.378-.3.452-.493.115-.88q-.983-1.127-1.886-2.324c-.3-.406-.518-.485-.932-.112-.795.715-1.645,1.368-2.472,2.045a1.532,1.532,0,0,1-2.5-.258,3.093,3.093,0,0,1-.691-.987,1.488,1.488,0,0,1,.5-1.724c.921-.751,1.831-1.516,2.766-2.25.315-.249.329-.4.066-.721-2.039-2.475-4.026-5-6.1-7.447a2.067,2.067,0,0,1,.088-2.977,1.955,1.955,0,0,1,2.922.507q6.615,8.128,13.22,16.267,2.36,2.9,4.723,5.808A2.347,2.347,0,0,1,264.568,209.41Z" transform="translate(-165.168 -128.749)" fill="#51b176"/>
        <path id="Path_6843" data-name="Path 6843" d="M238.6,184.77c-2.047-.134-4.232-.26-6.411-.425a2.924,2.924,0,0,1-2.555-3.152q.292-4.2.526-8.4A2.811,2.811,0,0,1,233,169.92c3.064.129,6.129.3,9.182.567a2.788,2.788,0,0,1,2.138,4.213,56.96,56.96,0,0,0-4.322,9.591C239.824,184.808,239.813,184.806,238.6,184.77Z" transform="translate(-187.184 -154.6)" fill="#51b176"/>
        <path id="Path_6844" data-name="Path 6844" d="M235.176,177.061c-1.069-.058-2.135-.121-3.2-.164-.389-.014-.619-.093-.584-.567.115-1.445.206-2.892.28-4.339.019-.359.211-.359.469-.343,1.447.1,2.892.195,4.339.274.345.019.375.2.359.469-.1,1.469-.192,2.938-.274,4.41-.019.337-.173.381-.461.332-.3-.049-.614-.058-.924-.082Z" transform="translate(-184.132 -151.597)" fill="#1e1e1e"/>
      </g>
    </g>
  </g>
</svg>
