<svg xmlns="http://www.w3.org/2000/svg" width="152.937" height="122.35" viewBox="0 0 152.937 122.35">
  <path id="robot" d="M0,61.175V91.762a7.639,7.639,0,0,0,7.647,7.647h7.647V53.528H7.647A7.639,7.639,0,0,0,0,61.175ZM110.879,22.941H84.115V7.647a7.647,7.647,0,1,0-15.294,0V22.941H42.058A19.112,19.112,0,0,0,22.941,42.058v65A15.308,15.308,0,0,0,38.234,122.35H114.7A15.308,15.308,0,0,0,130,107.056v-65A19.112,19.112,0,0,0,110.879,22.941Zm-49.7,76.469H45.881V91.762H61.175ZM53.528,70.733a9.559,9.559,0,1,1,9.559-9.559A9.556,9.556,0,0,1,53.528,70.733ZM84.115,99.409H68.822V91.762H84.115Zm22.941,0H91.762V91.762h15.294ZM99.409,70.733a9.559,9.559,0,1,1,9.559-9.559A9.556,9.556,0,0,1,99.409,70.733ZM145.29,53.528h-7.647V99.409h7.647a7.639,7.639,0,0,0,7.647-7.647V61.175A7.639,7.639,0,0,0,145.29,53.528Z" fill="#3b3465"/>
</svg>
