<svg id="machine" xmlns="http://www.w3.org/2000/svg" width="121.531" height="121.531" viewBox="0 0 121.531 121.531">
  <path id="Path_9719" data-name="Path 9719" d="M432.681,90a10.655,10.655,0,0,0-3.56,20.707v22.018H422v21.363h3.56a10.694,10.694,0,0,0,10.681-10.681v-32.7A10.655,10.655,0,0,0,432.681,90Zm0,0" transform="translate(-321.832 -68.637)" fill="#3b3465"/>
  <path id="Path_9720" data-name="Path 9720" d="M151,120h21.363v7.121H151Zm0,0" transform="translate(-115.158 -91.516)" fill="#3b3465"/>
  <path id="Path_9721" data-name="Path 9721" d="M271,268.484h28.721V240H271Zm10.681-21.363H288.8v14.242h-7.121Zm0,0" transform="translate(-206.674 -183.032)" fill="#3b3465"/>
  <path id="Path_9722" data-name="Path 9722" d="M28.721,240H0v28.484H28.721ZM18.04,261.363H10.919V247.121H18.04Zm0,0" transform="translate(0 -183.032)" fill="#3b3465"/>
  <path id="Path_9723" data-name="Path 9723" d="M93.047,16.016C80.08,6.486,62.806,0,46.524,0S12.965,6.488,0,16.016V49.847H93.047ZM64.326,42.726h-35.6V21.363h35.6Zm0,0" fill="#3b3465"/>
  <path id="Path_9724" data-name="Path 9724" d="M172.363,268.484V240H151v28.484Zm-14.242-21.363h7.121v14.242h-7.121Zm0,0" transform="translate(-115.158 -183.032)" fill="#3b3465"/>
  <path id="Path_9725" data-name="Path 9725" d="M28.721,404.717h35.6v14.242H93.047V390H0v28.959H28.721Zm0,0" transform="translate(0 -297.427)" fill="#3b3465"/>
  <path id="Path_9726" data-name="Path 9726" d="M151,482h21.363v7.121H151Zm0,0" transform="translate(-115.158 -367.59)" fill="#3b3465"/>
</svg>
