<svg xmlns="http://www.w3.org/2000/svg" width="109.417" height="109.417" viewBox="0 0 109.417 109.417">
  <g id="Satelite" transform="translate(-3.707 -3.808)">
    <path id="Shape" d="M90.238,7.734A13.406,13.406,0,1,1,95.1,29.8l-18.313,34,26.09,26.09a4.444,4.444,0,0,1,0,6.32A58.116,58.116,0,0,1,31.3,104.59l-4.26,4.259A13.406,13.406,0,0,1,7.48,90.533l4.862-4.9a58.116,58.116,0,0,1,8.38-71.577,4.485,4.485,0,0,1,6.32,0L53.126,40.138l34-18.308c-1.642-4.488-.807-9.679,3.11-14.1ZM17.562,93.047,14.4,96.21a4.586,4.586,0,0,0,0,6.32,4.47,4.47,0,0,0,5.9.372l3.58-3.535ZM82.4,34.526,59.726,46.736,70.192,57.2Z" transform="translate(0 0)" fill="#3b3465"/>
  </g>
</svg>
