<svg xmlns="http://www.w3.org/2000/svg" width="184.056" height="70.428" viewBox="0 0 184.056 70.428">
  <g id="logo" transform="translate(-113.916 -217.628)">
    <g id="ECL_LABS" transform="translate(206.493 220.443)">
      <g id="Group_38" data-name="Group 38">
        <path id="Path_83" data-name="Path 83" d="M500,265.929v-.853q0-3.838.091-11.335t.09-11.335v-9.292h26.383v8.058c0,.06-.008.168-.023.325a.813.813,0,0,1-.079.326c-.038.06-.091.146-.159.258a.6.6,0,0,1-.238.236,1.827,1.827,0,0,1-.363.124,2.075,2.075,0,0,1-.5.056h-.635q-5.871,0-10.7-.18-.045.359-.147,1.111t-.158,1.324q-.057.572-.057,1.111H524.3a1.577,1.577,0,0,1,.907.18.7.7,0,0,1,.227.584q0,.113-.023.359t-.023.359q0,1.078.068,3.188t.068,3.187q-.068.449-.363.449a.308.308,0,0,1-.227-.09q-7.163.359-10.608.359h-.59v3.232q2.017,0,5.836-.179t5.723-.18q1.5,0,1.722.629v1.706q0,1.077.045,3.187t.045,3.187q0,1.122-.907,1.122-1.179,0-3.627-.023t-3.717-.023q-3.264,0-9.338.169t-8.794.191l-.634-.718A7.556,7.556,0,0,1,500,265.929Z" transform="translate(-500 -232.216)" fill="#8070f1"/>
        <path id="Path_84" data-name="Path 84" d="M652.26,251.86a16.277,16.277,0,0,1-1.791,5.959,12.67,12.67,0,0,1-3.6,4.22,15.932,15.932,0,0,1-5,2.458,21.409,21.409,0,0,1-6.108.83,22.269,22.269,0,0,1-5.621-.662,15.221,15.221,0,0,1-4.284-1.762,13.28,13.28,0,0,1-3.082-2.682,15.033,15.033,0,0,1-2.13-3.255,19.132,19.132,0,0,1-1.281-3.659,26.6,26.6,0,0,1-.657-3.7q-.17-1.717-.17-3.58v-1.975a15.332,15.332,0,0,1,1.541-5.892,13.3,13.3,0,0,1,3.2-4.22,17.335,17.335,0,0,1,4.306-2.671,21.108,21.108,0,0,1,4.714-1.481,25.491,25.491,0,0,1,4.556-.415,21.892,21.892,0,0,1,6.448.864,12.186,12.186,0,0,1,4.567,2.435,11.687,11.687,0,0,1,2.765,3.6,13.549,13.549,0,0,1,1.269,4.545v2.155q0,.718-4.987.718-1.179,0-3.275-.045t-2.754-.045c-.075,0-.189.008-.34.023s-.265.023-.34.023a.993.993,0,0,1-.9-.483,2.982,2.982,0,0,1-.408-1.178q-.1-.7-.249-1.392a2.372,2.372,0,0,0-.612-1.178,1.7,1.7,0,0,0-1.281-.482,3.518,3.518,0,0,0-1.428.269,2.161,2.161,0,0,0-.975.842,7.336,7.336,0,0,0-.6,1.156,5.74,5.74,0,0,0-.34,1.515q-.1.932-.136,1.571t-.057,1.706q-.023,1.066-.046,1.56,0,.269-.045.987t-.046,1.167q0,5.589,2.992,5.746a1.712,1.712,0,0,0,1.337-.584,3.17,3.17,0,0,0,.714-1.3q.192-.718.442-1.515a2.725,2.725,0,0,1,.544-1.089h12.33A.85.85,0,0,1,652.26,251.86Z" transform="translate(-590.111 -229.37)" fill="#8070f1"/>
        <path id="Path_85" data-name="Path 85" d="M771.475,235.185q0-3.658.771-4.085a3.424,3.424,0,0,0,.635.045h.725q.7,0,2.312-.045t2.448-.045a42.02,42.02,0,0,1,5.2.258q1.982.258,2.232.954l-.272,23.163h.5q1.813-.089,2.538-.078t2.664.09q1.938.079,3.728.079a10.357,10.357,0,0,1,2.187.168q.714.168.714.685v8.619q-.3.808-10.109.808H772.064a4.511,4.511,0,0,1-.544-2.514v-6.374q0-2.805.045-8.3t.045-8.3q0-.516-.068-2.289T771.475,235.185Z" transform="translate(-706.379 -230.651)" fill="#8070f1"/>
      </g>
      <g id="Group_39" data-name="Group 39" transform="translate(0.107 45.672)">
        <path id="Path_86" data-name="Path 86" d="M500.445,421.351h6.621v15.992H517.4v5.225H500.445Z" transform="translate(-500.445 -420.989)" fill="#fff"/>
        <path id="Path_87" data-name="Path 87" d="M595.805,439.065h-7.516l-1.044,3.5h-6.76l8.053-21.217h7.222l8.051,21.217h-6.933Zm-1.373-4.588-2.365-7.627-2.34,7.627Z" transform="translate(-561.293 -420.989)" fill="#fff"/>
        <path id="Path_88" data-name="Path 88" d="M692.34,421.351h12.393a6.8,6.8,0,0,1,4.757,1.519,4.9,4.9,0,0,1,1.659,3.763,4.721,4.721,0,0,1-1.184,3.228,5.276,5.276,0,0,1-2.309,1.418,6.013,6.013,0,0,1,3.4,1.889,5.159,5.159,0,0,1,1.089,3.365,5.743,5.743,0,0,1-.775,2.967,5.675,5.675,0,0,1-2.119,2.084,7.054,7.054,0,0,1-2.514.695,29.2,29.2,0,0,1-2.967.289H692.34Zm6.679,8.322H701.9a3.329,3.329,0,0,0,2.156-.528,1.916,1.916,0,0,0,.607-1.527,1.806,1.806,0,0,0-.607-1.447,3.277,3.277,0,0,0-2.112-.521h-2.923Zm0,8.336H702.4a3.739,3.739,0,0,0,2.411-.6,2.016,2.016,0,0,0,.7-1.614,1.861,1.861,0,0,0-.694-1.512,3.908,3.908,0,0,0-2.433-.572h-3.361Z" transform="translate(-646.326 -420.989)" fill="#fff"/>
        <path id="Path_89" data-name="Path 89" d="M790.3,434.4l6.3-.391a4.722,4.722,0,0,0,.833,2.316,3.515,3.515,0,0,0,2.923,1.288,3.26,3.26,0,0,0,2.185-.658,1.966,1.966,0,0,0,.767-1.527,1.942,1.942,0,0,0-.731-1.476,8.517,8.517,0,0,0-3.391-1.23,14.479,14.479,0,0,1-6.211-2.576,5.159,5.159,0,0,1-1.871-4.1,5.522,5.522,0,0,1,.957-3.09,6.335,6.335,0,0,1,2.879-2.287,13.561,13.561,0,0,1,5.269-.832,10.857,10.857,0,0,1,6.263,1.512,6.513,6.513,0,0,1,2.565,4.812l-6.241.362a3.312,3.312,0,0,0-1.045-2.084,3.377,3.377,0,0,0-2.2-.651,2.675,2.675,0,0,0-1.739.485,1.481,1.481,0,0,0-.584,1.18,1.177,1.177,0,0,0,.482.912,5.456,5.456,0,0,0,2.221.782,28,28,0,0,1,6.219,1.874,6.518,6.518,0,0,1,2.733,2.352,5.919,5.919,0,0,1,.855,3.141,6.682,6.682,0,0,1-1.14,3.763,7.123,7.123,0,0,1-3.186,2.612,12.99,12.99,0,0,1-5.159.89q-5.466,0-7.57-2.084A8.182,8.182,0,0,1,790.3,434.4Z" transform="translate(-720.797 -419.842)" fill="#fff"/>
      </g>
    </g>
    <g id="hair" transform="translate(113.916 217.628)">
      <path id="Path_90" data-name="Path 90" d="M187.219,239.473s6.239,10.536,3.753,26.419a7.782,7.782,0,0,0-5.887-4.738v0c-.928-3.757-6.4-20.075-30.448-14.617-27.115,6.153-28.026-7.242-28.026-7.242a31.944,31.944,0,0,0-8.994,23.693,7.736,7.736,0,0,0-2.63,5.82v.213c-1.657-10.169-3.947-36.148,15.044-39.8,0,0-3.731-18.624,39.644-8.659,20.072,4.611,22.1-2.05,22.1-2.05S200.889,236.511,187.219,239.473Z" transform="translate(-113.916 -217.628)" fill="#fff"/>
    </g>
    <g id="Group_41" data-name="Group 41" transform="translate(118.573 266.253)">
      <g id="Group_40" data-name="Group 40" transform="translate(0 0)">
        <path id="Path_95" data-name="Path 95" d="M204.058,421.217c-2.308-.576-12.23-.763-18.714-.52-.1,0-11.305.405-16.332.386s-16.227-.5-16.329-.51c-6.483-.293-16.405-.181-18.718.377-.639.154-.662,1.7-.608,2.7a1.262,1.262,0,0,0,.694,1.057c3.638,1.818.224,11.538,6.545,15.579,3.115,1.992,17.9,3.071,21.065-.825,5.253-6.471,2.769-14.7,7.337-14.686s2.022,8.23,7.225,14.741c3.133,3.92,17.928,2.953,21.058.985,6.351-3.993,3.012-13.738,6.665-15.529a1.259,1.259,0,0,0,.7-1.052C204.707,422.926,204.7,421.376,204.058,421.217Zm-43.807,17.059c-2.453,2.913-12.049,2.655-18.17,1.066-3.466-.9-3.706-9.023-4.3-13.024-.438-2.929,3.679-3.129,8.616-3.254,7.229-.184,14.263.02,16.435.728C166.241,424.906,162.206,435.953,160.251,438.276ZM200.2,426.556c-.628,4-.931,12.117-4.4,12.991-6.133,1.543-15.731,1.728-18.161-1.2-1.938-2.338-5.889-13.416-2.467-14.5,2.177-.692,9.213-.842,16.44-.6C196.549,423.4,200.664,423.63,200.2,426.556Z" transform="translate(-133.337 -420.416)" fill="#fff"/>
      </g>
    </g>
  </g>
</svg>
