<svg xmlns="http://www.w3.org/2000/svg" width="24.396" height="19.814" viewBox="0 0 24.396 19.814">
  <path id="twitter" d="M21.888,53.02c.015.217.015.433.015.65A14.128,14.128,0,0,1,7.678,67.9,14.129,14.129,0,0,1,0,65.652a10.344,10.344,0,0,0,1.207.062,10.013,10.013,0,0,0,6.207-2.136A5.009,5.009,0,0,1,2.74,60.11a6.3,6.3,0,0,0,.944.077A5.288,5.288,0,0,0,5,60.017,5,5,0,0,1,.991,55.11v-.062a5.036,5.036,0,0,0,2.26.635A5.007,5.007,0,0,1,1.7,49a14.212,14.212,0,0,0,10.31,5.232,5.644,5.644,0,0,1-.124-1.145,5,5,0,0,1,8.653-3.421,9.844,9.844,0,0,0,3.173-1.207,4.986,4.986,0,0,1-2.2,2.755,10.023,10.023,0,0,0,2.879-.774,10.748,10.748,0,0,1-2.508,2.585Z" transform="translate(0 -48.082)" fill="#fff"/>
</svg>
